<svg xmlns="http://www.w3.org/2000/svg" version="1.1" xmlns:xlink="http://www.w3.org/1999/xlink" xmlns:svgjs="http://svgjs.dev/svgjs" width="128" height="128" viewBox="0 0 128 128"><g transform="matrix(0.8046875,0,0,0.8046875,12.760752631578946,21.49551521702326)"><svg viewBox="0 0 95 78" data-background-color="#ffffff" preserveAspectRatio="xMidYMid meet" height="105" width="128" xmlns="http://www.w3.org/2000/svg" xmlns:xlink="http://www.w3.org/1999/xlink"><g id="tight-bounds" transform="matrix(1,0,0,1,-0.24049999999999727,0.23853685374385236)"><svg viewBox="0 0 95.481 77.5229262925123" height="77.5229262925123" width="95.481"><g><svg viewBox="0 0 95.481 77.5229262925123" height="77.5229262925123" width="95.481"><g><svg viewBox="0 0 95.481 77.5229262925123" height="77.5229262925123" width="95.481"><g id="textblocktransform"><svg viewBox="0 0 95.481 77.5229262925123" height="77.5229262925123" width="95.481" id="textblock"><g><svg viewBox="0 0 95.481 77.5229262925123" height="77.5229262925123" width="95.481"><g><svg viewBox="0 0 95.481 77.5229262925123" height="77.5229262925123" width="95.481"><g><svg xmlns="http://www.w3.org/2000/svg" xmlns:xlink="http://www.w3.org/1999/xlink" version="1.1" x="0" y="0" viewBox="3.187999999999997 11.920000000000009 94.06099999999999 76.36999999999998" enable-background="new 0 0 100 100" xml:space="preserve" height="77.5229262925123" width="95.481" class="icon-icon-0" data-fill-palette-color="accent" id="icon-0"></svg></g></svg></g></svg></g></svg></g></svg></g></svg></g><defs></defs><mask id="d4d1ffa4-21b1-4534-8aa0-108fd65ded9b"><g id="SvgjsG1013"><svg viewBox="0 0 95.481 77.5229262925123" height="77.5229262925123" width="95.481"><g><svg viewBox="0 0 95.481 77.5229262925123" height="77.5229262925123" width="95.481"><g><svg viewBox="0 0 95.481 77.5229262925123" height="77.5229262925123" width="95.481"><g id="SvgjsG1012"><svg viewBox="0 0 95.481 77.5229262925123" height="77.5229262925123" width="95.481" id="SvgjsSvg1011"><g><svg viewBox="0 0 95.481 77.5229262925123" height="77.5229262925123" width="95.481"><g><svg viewBox="0 0 95.481 77.5229262925123" height="77.5229262925123" width="95.481"><g><svg xmlns="http://www.w3.org/2000/svg" xmlns:xlink="http://www.w3.org/1999/xlink" version="1.1" x="0" y="0" viewBox="3.187999999999997 11.920000000000009 94.06099999999999 76.36999999999998" enable-background="new 0 0 100 100" xml:space="preserve" height="77.5229262925123" width="95.481" class="icon-icon-0" data-fill-palette-color="accent" id="SvgjsSvg1010"><g fill="white"><path fill="white" d="M67.022 66.238c4.007-0.975 9.697-2.172 15.654-2.81 0.27-1.359 0.416-2.747 0.416-4.161 0-0.529-0.022-1.056-0.061-1.578v-7.557C80.241 56.723 74.527 62.363 67.022 66.238z"></path><path fill="white" d="M43.141 69.965c22.065 0 39.952-12.994 39.952-29.023 0-16.029-17.887-29.022-39.952-29.022-22.065 0-39.952 12.994-39.952 29.022C3.188 56.971 21.076 69.965 43.141 69.965zM9.82 40.94c0-4.666 5.207-8.448 11.63-8.448 6.423 0 11.63 3.783 11.63 8.448 0 4.666-5.207 8.449-11.63 8.449C15.026 49.389 9.82 45.606 9.82 40.94zM76.462 40.94c0 4.666-5.209 8.449-11.632 8.449S53.2 45.606 53.2 40.94c0-4.666 5.207-8.448 11.63-8.448S76.462 36.275 76.462 40.94zM31.509 56.698c0-4.665 5.208-8.449 11.629-8.449 6.424 0 11.631 3.784 11.631 8.449 0 4.667-5.208 8.448-11.631 8.448C36.716 65.146 31.509 61.365 31.509 56.698zM40.176 40.941c0-1.189 1.328-2.153 2.965-2.153s2.965 0.964 2.965 2.153c0 1.189-1.328 2.154-2.965 2.154S40.176 42.131 40.176 40.941zM54.77 25.186c0 4.666-5.208 8.449-11.631 8.449-6.422 0-11.629-3.783-11.629-8.449 0-4.667 5.208-8.449 11.629-8.449C49.562 16.736 54.77 20.519 54.77 25.186z"></path><path fill="white" d="M85.484 64.411c-10.738 0.977-24.245 4.428-30.171 6.047-3.854 0.868-7.939 1.339-12.173 1.339-18.725 0-34.613-9.143-39.907-21.701v7.876c-0.026 0.43-0.045 0.861-0.045 1.295 0 16.03 17.887 29.023 39.952 29.023 7.255 0 14.053-1.412 19.916-3.867 22.008-5.756 34.193-3.097 34.193-3.097V64.955C94.481 64.033 90.256 63.978 85.484 64.411z"></path></g></svg></g></svg></g></svg></g></svg></g></svg></g></svg></g><defs><mask></mask></defs></svg></g></mask><linearGradient x1="0" x2="1" y1="0.5" y2="0.5" id="c93eb610-9bc5-496b-ad7d-735f3f6d9e82"><stop stop-color="#ffa62e" offset="0"></stop><stop stop-color="#f71b3d" offset="1"></stop></linearGradient><rect width="95.481" height="77.5229262925123" fill="url(#c93eb610-9bc5-496b-ad7d-735f3f6d9e82)" mask="url(#d4d1ffa4-21b1-4534-8aa0-108fd65ded9b)" data-fill-palette-color="accent"></rect></svg><rect width="95.481" height="77.5229262925123" fill="none" stroke="none" visibility="hidden"></rect></g></svg></g></svg>