<svg xmlns="http://www.w3.org/2000/svg" version="1.1" xmlns:xlink="http://www.w3.org/1999/xlink" xmlns:svgjs="http://svgjs.dev/svgjs" width="128" height="128" viewBox="0 0 128 128"><g transform="matrix(0.8046875,0,0,0.8046875,12.760752631578946,11.584058665795695)"><svg viewBox="0 0 95 97" data-background-color="#ffffff" preserveAspectRatio="xMidYMid meet" height="130" width="128" xmlns="http://www.w3.org/2000/svg" xmlns:xlink="http://www.w3.org/1999/xlink"><g id="tight-bounds" transform="matrix(1,0,0,1,-0.24049999999999727,0.10316113558481277)"><svg viewBox="0 0 95.481 95.481" height="95.481" width="95.481"><g><svg viewBox="0 0 95.481 95.481" height="95.481" width="95.481"><g><svg viewBox="0 0 95.481 95.481" height="95.481" width="95.481"><g id="textblocktransform"><svg viewBox="0 0 95.481 95.481" height="95.481" width="95.481" id="textblock"><g><svg viewBox="0 0 95.481 95.481" height="95.481" width="95.481"><g><svg viewBox="0 0 95.481 95.481" height="95.481" width="95.481"><g><svg xmlns="http://www.w3.org/2000/svg" data-name="Layer 1" viewBox="15 15 70 70" x="0" y="0" height="95.481" width="95.481" class="icon-icon-0" data-fill-palette-color="accent" id="icon-0"><path d="M50 85A10 10 0 0 1 40 75V25a5 5 0 1 0-10 0V52.5A7.5 7.5 0 0 1 22.5 60h-5a2.5 2.5 0 0 1 0-5h5A2.5 2.5 0 0 0 25 52.5V25a10 10 0 0 1 20 0V75a5 5 0 0 0 10 0V25a10 10 0 0 1 20 0V52.5A2.5 2.5 0 0 0 77.5 55h5a2.5 2.5 0 0 1 0 5h-5A7.5 7.5 0 0 1 70 52.5V25a5 5 0 0 0-10 0V75A10 10 0 0 1 50 85Z" fill="#ea3c12" data-fill-palette-color="accent"></path></svg></g></svg></g></svg></g></svg></g></svg></g></svg></g><defs></defs></svg><rect width="95.481" height="95.481" fill="none" stroke="none" visibility="hidden"></rect></g></svg></g></svg>