<svg xmlns="http://www.w3.org/2000/svg" version="1.1" xmlns:xlink="http://www.w3.org/1999/xlink" xmlns:svgjs="http://svgjs.dev/svgjs" width="1500" height="382" viewBox="0 0 1500 382"><g transform="matrix(1,0,0,1,-0.9090909090909918,-12.39058742046359)"><svg viewBox="0 0 396 101" data-background-color="#ffffff" preserveAspectRatio="xMidYMid meet" height="382" width="1500" xmlns="http://www.w3.org/2000/svg" xmlns:xlink="http://www.w3.org/1999/xlink"><g id="tight-bounds" transform="matrix(1,0,0,1,0.2400000000000091,3.276045365096394)"><svg viewBox="0 0 395.52 94.4479092698072" height="94.4479092698072" width="395.52"><g><svg viewBox="0 0 582.0457116311854 138.98918022608862" height="94.4479092698072" width="395.52"><g><rect width="7.73430041478693" height="138.98918022608862" x="158.54455149182547" y="0" fill="#ff6736" opacity="1" stroke-width="0" stroke="transparent" fill-opacity="1" class="rect-qz-0" data-fill-palette-color="primary" rx="1%" id="qz-0" data-palette-color="#ff6736"></rect></g><g transform="matrix(1,0,0,1,186.52571163118552,0.34574422941813054)"><svg viewBox="0 0 395.5199999999999 138.29769176725236" height="138.29769176725236" width="395.5199999999999"><g id="textblocktransform"><svg viewBox="0 0 395.5199999999999 138.29769176725236" height="138.29769176725236" width="395.5199999999999" id="textblock"><g><svg viewBox="0 0 395.5199999999999 85.76415952732644" height="85.76415952732644" width="395.5199999999999"><g transform="matrix(1,0,0,1,0,0)"><svg width="395.5199999999999" viewBox="0.95 -36 169.24 36.7" height="85.76415952732644" data-palette-color="#ff6736"><path d="M26.05-36L35.05-36 28.75 0 19.7 0 13.4-19.7 10 0 0.95 0 7.3-36 16.6-36 22.8-17.6 26.05-36ZM59.4-7.7L59.4-7.7Q59.4-6.4 60.72-6.4 62.05-6.4 62.95-6.9L62.95-6.9 62.7-1.25Q60.3 0.7 57.3 0.7L57.3 0.7Q51.8 0.7 51.2-3.3L51.2-3.3Q48.7 0.7 43.85 0.7L43.85 0.7Q35.65 0.7 35.65-6.35L35.65-6.35Q35.65-7.55 35.9-9L35.9-9 36.95-14.85Q37.75-19.35 40.62-22.03 43.5-24.7 48.12-24.7 52.75-24.7 54.4-22.55L54.4-22.55 54.65-24.05 62.25-24.05 59.45-8.3Q59.4-8 59.4-7.7ZM45.25-13.85L44.6-10.1Q44.5-9.65 44.5-8.85 44.5-8.05 45.25-7.28 46-6.5 47.77-6.5 49.55-6.5 50.85-7.9L50.85-7.9 52.35-16.3Q51.8-17.55 49.75-17.55L49.75-17.55Q45.9-17.55 45.25-13.85L45.25-13.85ZM90.15-7.7L90.15-7.7Q90.15-6.4 91.47-6.4 92.8-6.4 93.7-6.9L93.7-6.9 93.45-1.25Q91.05 0.7 88.05 0.7L88.05 0.7Q82.4 0.7 81.9-3.65L81.9-3.65Q78.9 0.7 73.82 0.7 68.75 0.7 67.25-1.6L67.25-1.6Q66.25-3.05 66.25-4.9 66.25-6.75 66.55-8.3L66.55-8.3 69.35-24.05 77.85-24.05 75.5-10.75Q75.35-9.85 75.35-8.95L75.35-8.95Q75.35-6.55 78.05-6.55L78.05-6.55Q80.3-6.55 81.65-8.1L81.65-8.1 84.5-24.05 93-24.05 90.2-8.3Q90.15-8 90.15-7.7ZM138.19-6.4L138.19-6.4Q139.34-6.4 140.24-6.9L140.24-6.9 139.99-1.25Q137.64 0.7 134.64 0.7L134.64 0.7Q127.84 0.7 127.84-5L127.84-5Q127.84-6 128.04-7.15L128.04-7.15 129.09-13.3Q129.24-14.2 129.24-15.1L129.24-15.1Q129.24-17.5 126.62-17.5 123.99-17.5 122.49-15.45L122.49-15.45 119.79 0 111.29 0 113.64-13.3Q113.79-14.2 113.79-15.1L113.79-15.1Q113.79-17.5 111.09-17.5L111.09-17.5Q108.94-17.5 107.39-15.85L107.39-15.85 104.59 0 96.09 0 100.34-24.05 108.24-24.05 107.69-21.05Q110.69-24.75 115.29-24.75L115.29-24.75Q121.79-24.75 122.69-20.45L122.69-20.45Q125.69-24.75 130.72-24.75 135.74-24.75 137.24-22.5L137.24-22.5Q138.24-20.95 138.24-19.1 138.24-17.25 137.99-15.75L137.99-15.75 136.74-8.3Q136.69-8 136.69-7.75L136.69-7.75Q136.69-6.4 138.19-6.4ZM166.64-7.7L166.64-7.7Q166.64-6.4 167.97-6.4 169.29-6.4 170.19-6.9L170.19-6.9 169.94-1.25Q167.54 0.7 164.54 0.7L164.54 0.7Q159.04 0.7 158.44-3.3L158.44-3.3Q155.94 0.7 151.09 0.7L151.09 0.7Q142.89 0.7 142.89-6.35L142.89-6.35Q142.89-7.55 143.14-9L143.14-9 144.19-14.85Q144.99-19.35 147.87-22.03 150.74-24.7 155.37-24.7 159.99-24.7 161.64-22.55L161.64-22.55 161.89-24.05 169.49-24.05 166.69-8.3Q166.64-8 166.64-7.7ZM152.49-13.85L151.84-10.1Q151.74-9.65 151.74-8.85 151.74-8.05 152.49-7.28 153.24-6.5 155.02-6.5 156.79-6.5 158.09-7.9L158.09-7.9 159.59-16.3Q159.04-17.55 156.99-17.55L156.99-17.55Q153.14-17.55 152.49-13.85L152.49-13.85Z" opacity="1" transform="matrix(1,0,0,1,0,0)" fill="#ff6736" class="wordmark-text-0" data-fill-palette-color="primary" id="text-0"></path></svg></g></svg></g><g transform="matrix(1,0,0,1,0,106.01101925189955)"><svg viewBox="0 0 395.5199999999999 32.2866725153528" height="32.2866725153528" width="395.5199999999999"><g transform="matrix(1,0,0,1,0,0)"><svg width="395.5199999999999" viewBox="1.34 -37.7 584.3399999999999 47.71" height="32.2866725153528" data-palette-color="url(#9cbd18a2-55e8-4757-880a-ea8d01a1cdac)"></svg></g></svg></g></svg></g></svg></g><g transform="matrix(1,0,0,1,0,0.34574422941813054)"><svg viewBox="0 0 138.29769176725236 138.29769176725236" height="138.29769176725236" width="138.29769176725236"><g><svg xmlns="http://www.w3.org/2000/svg" data-name="Layer 1" viewBox="15 15 70 70" x="0" y="0" height="138.29769176725236" width="138.29769176725236" class="icon-icon-0" data-fill-palette-color="accent" id="icon-0"><path d="M50 85A10 10 0 0 1 40 75V25a5 5 0 1 0-10 0V52.5A7.5 7.5 0 0 1 22.5 60h-5a2.5 2.5 0 0 1 0-5h5A2.5 2.5 0 0 0 25 52.5V25a10 10 0 0 1 20 0V75a5 5 0 0 0 10 0V25a10 10 0 0 1 20 0V52.5A2.5 2.5 0 0 0 77.5 55h5a2.5 2.5 0 0 1 0 5h-5A7.5 7.5 0 0 1 70 52.5V25a5 5 0 0 0-10 0V75A10 10 0 0 1 50 85Z" fill="#ea3c12" data-fill-palette-color="accent"></path></svg></g></svg></g></svg></g><defs></defs><mask id="bb5265a1-8df8-4b79-be0c-f73ccd1d623e"><g id="SvgjsG1184"><svg viewBox="0 0 395.52 94.4479092698072" height="94.4479092698072" width="395.52"><g><svg viewBox="0 0 582.0457116311854 138.98918022608862" height="94.4479092698072" width="395.52"><g></g><g transform="matrix(1,0,0,1,186.52571163118552,0.34574422941813054)"><svg viewBox="0 0 395.5199999999999 138.29769176725236" height="138.29769176725236" width="395.5199999999999"><g id="SvgjsG1182"><svg viewBox="0 0 395.5199999999999 138.29769176725236" height="138.29769176725236" width="395.5199999999999" id="SvgjsSvg1181"><g><svg viewBox="0 0 395.5199999999999 85.76415952732644" height="85.76415952732644" width="395.5199999999999"><g transform="matrix(1,0,0,1,0,0)"><svg width="395.5199999999999" viewBox="0.95 -36 169.24 36.7" height="85.76415952732644" data-palette-color="#ff6736"></svg></g></svg></g><g transform="matrix(1,0,0,1,0,106.01101925189955)"><svg viewBox="0 0 395.5199999999999 32.2866725153528" height="32.2866725153528" width="395.5199999999999"><g transform="matrix(1,0,0,1,0,0)"><svg width="395.5199999999999" viewBox="1.34 -37.7 584.3399999999999 47.71" height="32.2866725153528" data-palette-color="url(#9cbd18a2-55e8-4757-880a-ea8d01a1cdac)"><path d="M31.1-17.36L31.1-3.54Q28.66-1.46 25.66-0.35 22.66 0.76 19.41 0.76L19.41 0.76Q16.92 0.76 14.61 0.11 12.3-0.54 10.3-1.72 8.3-2.91 6.64-4.55 4.98-6.2 3.81-8.22 2.64-10.23 1.99-12.55 1.34-14.87 1.34-17.36L1.34-17.36Q1.34-19.85 1.99-22.14 2.64-24.44 3.81-26.45 4.98-28.47 6.64-30.11 8.3-31.76 10.3-32.93 12.3-34.11 14.61-34.75 16.92-35.4 19.41-35.4L19.41-35.4Q22.66-35.4 25.66-34.29 28.66-33.18 31.1-31.1L31.1-31.1 27.44-25Q25.85-26.61 23.78-27.53 21.7-28.44 19.41-28.44L19.41-28.44Q17.11-28.44 15.1-27.56 13.09-26.68 11.57-25.18 10.06-23.68 9.18-21.67 8.3-19.65 8.3-17.36L8.3-17.36Q8.3-15.04 9.18-13.01 10.06-10.99 11.57-9.47 13.09-7.96 15.1-7.08 17.11-6.2 19.41-6.2L19.41-6.2Q20.73-6.2 21.97-6.52 23.22-6.84 24.34-7.4L24.34-7.4 24.34-17.36 31.1-17.36ZM58.69-21.46L46.19-6.4Q46.58-6.27 46.97-6.24 47.36-6.2 47.75-6.2L47.75-6.2Q48.73-6.2 49.63-6.47 50.53-6.74 51.33-7.24 52.12-7.74 52.74-8.46 53.37-9.18 53.76-10.06L53.76-10.06 58.64-5.15Q57.71-3.83 56.5-2.78 55.3-1.73 53.89-1 52.49-0.27 50.94 0.11 49.39 0.49 47.75 0.49L47.75 0.49Q44.99 0.49 42.56-0.54 40.13-1.56 38.32-3.39 36.5-5.22 35.45-7.75 34.4-10.28 34.4-13.31L34.4-13.31Q34.4-16.41 35.45-18.97 36.5-21.53 38.32-23.34 40.13-25.15 42.56-26.15 44.99-27.15 47.75-27.15L47.75-27.15Q49.39-27.15 50.95-26.76 52.51-26.37 53.92-25.63 55.32-24.9 56.54-23.84 57.76-22.78 58.69-21.46L58.69-21.46ZM41.84-9.84L49.61-20.14Q49.14-20.31 48.69-20.36 48.24-20.41 47.75-20.41L47.75-20.41Q46.38-20.41 45.18-19.91 43.97-19.41 43.08-18.48 42.19-17.55 41.67-16.25 41.16-14.94 41.16-13.31L41.16-13.31Q41.16-12.94 41.2-12.48 41.23-12.01 41.32-11.54 41.4-11.06 41.53-10.62 41.65-10.18 41.84-9.84L41.84-9.84ZM80.2 0L75.14 0Q72.72 0 70.6-0.92 68.48-1.83 66.88-3.43 65.28-5.03 64.36-7.15 63.45-9.28 63.45-11.69L63.45-11.69 63.45-19.46 60.2-19.46 60.2-26.1 63.45-26.1 63.45-36.55 70.09-36.55 70.09-26.1 80.2-26.1 80.2-19.46 70.09-19.46 70.09-11.69Q70.09-10.64 70.48-9.73 70.87-8.81 71.55-8.13 72.24-7.45 73.16-7.04 74.09-6.64 75.14-6.64L75.14-6.64 80.2-6.64 80.2 0ZM114.37-10.96L114.37 0 107.39 0 107.39-10.96Q105.07-11.55 103.13-12.84 101.19-14.14 99.79-15.93 98.4-17.72 97.63-19.91 96.87-22.09 96.87-24.51L96.87-24.51 96.87-35.01 103.87-35.01 103.87-24.51Q103.87-23.07 104.42-21.79 104.97-20.51 105.92-19.56 106.87-18.6 108.16-18.05 109.44-17.5 110.88-17.5L110.88-17.5Q112.32-17.5 113.6-18.05 114.88-18.6 115.83-19.56 116.79-20.51 117.34-21.79 117.89-23.07 117.89-24.51L117.89-24.51 117.89-35.01 124.87-35.01 124.87-24.51Q124.87-22.09 124.1-19.91 123.33-17.72 121.94-15.93 120.55-14.14 118.62-12.84 116.69-11.55 114.37-10.96L114.37-10.96ZM153.19-13.31L153.19-13.31Q153.19-10.38 152.14-7.85 151.09-5.32 149.28-3.48 147.47-1.64 145.04-0.57 142.61 0.49 139.83 0.49L139.83 0.49Q137.07 0.49 134.64-0.57 132.21-1.64 130.4-3.48 128.58-5.32 127.53-7.85 126.48-10.38 126.48-13.31L126.48-13.31Q126.48-16.28 127.53-18.82 128.58-21.36 130.4-23.21 132.21-25.05 134.64-26.1 137.07-27.15 139.83-27.15L139.83-27.15Q142.61-27.15 145.04-26.16 147.47-25.17 149.28-23.35 151.09-21.53 152.14-18.98 153.19-16.43 153.19-13.31ZM146.47-13.31L146.47-13.31Q146.47-14.92 145.95-16.22 145.42-17.53 144.52-18.47 143.62-19.41 142.41-19.91 141.2-20.41 139.83-20.41L139.83-20.41Q138.46-20.41 137.26-19.91 136.05-19.41 135.16-18.47 134.26-17.53 133.75-16.22 133.24-14.92 133.24-13.31L133.24-13.31Q133.24-11.79 133.75-10.5 134.26-9.2 135.16-8.25 136.05-7.3 137.26-6.75 138.46-6.2 139.83-6.2L139.83-6.2Q141.2-6.2 142.41-6.71 143.62-7.23 144.52-8.15 145.42-9.08 145.95-10.4 146.47-11.72 146.47-13.31ZM178.28 0L176.08-3.05Q175.28-2.32 174.36-1.67 173.45-1.03 172.45-0.55 171.44-0.07 170.38 0.21 169.32 0.49 168.22 0.49L168.22 0.49Q165.81 0.49 163.68-0.37 161.56-1.22 159.96-2.8 158.36-4.37 157.44-6.63 156.53-8.89 156.53-11.69L156.53-11.69 156.53-26.15 163.17-26.15 163.17-11.69Q163.17-10.38 163.57-9.34 163.97-8.3 164.66-7.59 165.34-6.88 166.26-6.52 167.17-6.15 168.22-6.15L168.22-6.15Q169.25-6.15 170.16-6.63 171.08-7.1 171.76-7.89 172.45-8.67 172.84-9.66 173.23-10.64 173.23-11.69L173.23-11.69 173.23-26.15 179.89-26.15 179.89 0 178.28 0ZM191.63-14.4L191.63 0 184.97 0 184.97-26.15 186.58-26.15 188.78-23.05Q190.39-24.51 192.44-25.31 194.49-26.1 196.69-26.1L196.69-26.1 202.57-26.1 202.57-19.46 196.69-19.46Q195.64-19.46 194.71-19.07 193.78-18.68 193.1-17.99 192.41-17.31 192.02-16.38 191.63-15.45 191.63-14.4L191.63-14.4ZM218.31-24.51L218.31-24.51Q218.31-26.68 219.14-28.59 219.97-30.49 221.4-31.92 222.83-33.35 224.73-34.18 226.64-35.01 228.81-35.01L228.81-35.01 244.87-35.01 244.87-28 228.81-28Q228.08-28 227.44-27.73 226.81-27.47 226.33-26.99 225.86-26.51 225.59-25.88 225.32-25.24 225.32-24.51L225.32-24.51Q225.32-23.78 225.59-23.13 225.86-22.49 226.33-22.01 226.81-21.53 227.44-21.26 228.08-21 228.81-21L228.81-21 235.82-21Q237.99-21 239.91-20.18 241.82-19.36 243.25-17.93 244.68-16.5 245.5-14.59 246.32-12.67 246.32-10.5L246.32-10.5Q246.32-8.33 245.5-6.42 244.68-4.52 243.25-3.09 241.82-1.66 239.91-0.83 237.99 0 235.82 0L235.82 0 220.27 0 220.27-7.01 235.82-7.01Q236.55-7.01 237.18-7.28 237.82-7.54 238.3-8.02 238.77-8.5 239.04-9.13 239.31-9.77 239.31-10.5L239.31-10.5Q239.31-11.23 239.04-11.87 238.77-12.5 238.3-12.98 237.82-13.45 237.18-13.72 236.55-13.99 235.82-13.99L235.82-13.99 228.81-13.99Q226.64-13.99 224.73-14.82 222.83-15.65 221.4-17.08 219.97-18.51 219.14-20.42 218.31-22.34 218.31-24.51ZM267.92 0L262.87 0Q260.45 0 258.32-0.92 256.2-1.83 254.6-3.43 253-5.03 252.09-7.15 251.17-9.28 251.17-11.69L251.17-11.69 251.17-19.46 247.92-19.46 247.92-26.1 251.17-26.1 251.17-36.55 257.81-36.55 257.81-26.1 267.92-26.1 267.92-19.46 257.81-19.46 257.81-11.69Q257.81-10.64 258.2-9.73 258.59-8.81 259.28-8.13 259.96-7.45 260.89-7.04 261.82-6.64 262.87-6.64L262.87-6.64 267.92-6.64 267.92 0ZM278.32-14.4L278.32 0 271.65 0 271.65-26.15 273.26-26.15 275.46-23.05Q277.07-24.51 279.12-25.31 281.17-26.1 283.37-26.1L283.37-26.1 289.25-26.1 289.25-19.46 283.37-19.46Q282.32-19.46 281.39-19.07 280.47-18.68 279.78-17.99 279.1-17.31 278.71-16.38 278.32-15.45 278.32-14.4L278.32-14.4ZM314.76-21.46L302.26-6.4Q302.66-6.27 303.05-6.24 303.44-6.2 303.83-6.2L303.83-6.2Q304.8-6.2 305.71-6.47 306.61-6.74 307.4-7.24 308.2-7.74 308.82-8.46 309.44-9.18 309.83-10.06L309.83-10.06 314.72-5.15Q313.79-3.83 312.58-2.78 311.37-1.73 309.97-1 308.56-0.27 307.01 0.11 305.46 0.49 303.83 0.49L303.83 0.49Q301.07 0.49 298.64-0.54 296.21-1.56 294.39-3.39 292.57-5.22 291.52-7.75 290.47-10.28 290.47-13.31L290.47-13.31Q290.47-16.41 291.52-18.97 292.57-21.53 294.39-23.34 296.21-25.15 298.64-26.15 301.07-27.15 303.83-27.15L303.83-27.15Q305.46-27.15 307.03-26.76 308.59-26.37 309.99-25.63 311.4-24.9 312.62-23.84 313.84-22.78 314.76-21.46L314.76-21.46ZM297.92-9.84L305.68-20.14Q305.22-20.31 304.77-20.36 304.32-20.41 303.83-20.41L303.83-20.41Q302.46-20.41 301.25-19.91 300.04-19.41 299.15-18.48 298.26-17.55 297.75-16.25 297.24-14.94 297.24-13.31L297.24-13.31Q297.24-12.94 297.27-12.48 297.31-12.01 297.39-11.54 297.48-11.06 297.6-10.62 297.72-10.18 297.92-9.84L297.92-9.84ZM343.23-26.1L343.23 0 341.62 0 339.03-3.59Q338.08-2.73 337.02-1.99 335.95-1.25 334.78-0.7 333.61-0.15 332.38 0.17 331.14 0.49 329.87 0.49L329.87 0.49Q327.12 0.49 324.69-0.44 322.26-1.37 320.44-3.14 318.62-4.91 317.57-7.47 316.52-10.03 316.52-13.31L316.52-13.31Q316.52-16.36 317.57-18.91 318.62-21.46 320.44-23.29 322.26-25.12 324.69-26.14 327.12-27.15 329.87-27.15L329.87-27.15Q331.14-27.15 332.39-26.83 333.63-26.51 334.81-25.95 335.98-25.39 337.04-24.63 338.1-23.88 339.03-23L339.03-23 341.62-26.1 343.23-26.1ZM336.52-13.31L336.52-13.31Q336.52-14.67 335.99-15.95 335.47-17.24 334.56-18.23 333.66-19.21 332.45-19.81 331.24-20.41 329.87-20.41L329.87-20.41Q328.51-20.41 327.3-19.95 326.09-19.48 325.2-18.58 324.31-17.68 323.8-16.35 323.28-15.01 323.28-13.31L323.28-13.31Q323.28-11.6 323.8-10.27 324.31-8.94 325.2-8.03 326.09-7.13 327.3-6.67 328.51-6.2 329.87-6.2L329.87-6.2Q331.24-6.2 332.45-6.8 333.66-7.4 334.56-8.39 335.47-9.38 335.99-10.66 336.52-11.94 336.52-13.31ZM381.56-16.6L381.56 0 374.92 0 374.92-16.6Q374.92-17.29 374.66-17.9 374.4-18.51 373.94-18.97 373.48-19.43 372.87-19.69 372.26-19.95 371.57-19.95L371.57-19.95Q370.89-19.95 370.29-19.69 369.69-19.43 369.24-18.97 368.79-18.51 368.53-17.9 368.28-17.29 368.28-16.6L368.28-16.6 368.28 0 361.61 0 361.61-16.6Q361.61-17.29 361.35-17.9 361.1-18.51 360.63-18.97 360.17-19.43 359.56-19.69 358.95-19.95 358.27-19.95L358.27-19.95Q357.58-19.95 356.98-19.69 356.39-19.43 355.93-18.97 355.48-18.51 355.23-17.9 354.97-17.29 354.97-16.6L354.97-16.6 354.97 0 348.3 0 348.3-26.15 349.92-26.15 351.72-24.15Q353.11-25.32 354.79-25.96 356.46-26.61 358.27-26.61L358.27-26.61Q360.1-26.61 361.84-25.93 363.59-25.24 364.91-23.56L364.91-23.56Q365.52-24.39 366.3-24.98 367.08-25.56 367.95-25.93 368.81-26.29 369.74-26.45 370.67-26.61 371.57-26.61L371.57-26.61Q373.65-26.61 375.47-25.83 377.28-25.05 378.64-23.69 379.99-22.34 380.78-20.51 381.56-18.68 381.56-16.6L381.56-16.6ZM394.27-33.25L394.27-33.25Q394.27-32.32 393.92-31.52 393.57-30.71 392.96-30.11 392.35-29.52 391.53-29.16 390.71-28.81 389.78-28.81L389.78-28.81Q388.85-28.81 388.04-29.16 387.22-29.52 386.62-30.11 386.02-30.71 385.67-31.52 385.31-32.32 385.31-33.25L385.31-33.25Q385.31-34.16 385.67-34.97 386.02-35.79 386.62-36.39 387.22-36.99 388.04-37.34 388.85-37.7 389.78-37.7L389.78-37.7Q390.71-37.7 391.53-37.34 392.35-36.99 392.96-36.39 393.57-35.79 393.92-34.97 394.27-34.16 394.27-33.25ZM393.13-26.15L393.13 0 386.41 0 386.41-26.15 393.13-26.15ZM404.87-14.94L404.87 0 398.2 0 398.2-26.15 399.81-26.15 402.01-23.61Q403.62-25.07 405.66-25.87 407.7-26.66 409.92-26.66L409.92-26.66Q412.31-26.66 414.44-25.74 416.56-24.83 418.15-23.23 419.74-21.63 420.65-19.49 421.57-17.36 421.57-14.94L421.57-14.94 421.57 0 414.9 0 414.9-14.94Q414.9-15.97 414.51-16.88 414.12-17.8 413.44-18.48 412.75-19.17 411.85-19.56 410.95-19.95 409.92-19.95L409.92-19.95Q408.87-19.95 407.94-19.56 407.02-19.17 406.33-18.48 405.65-17.8 405.26-16.88 404.87-15.97 404.87-14.94L404.87-14.94ZM444.9-13.31L444.9-13.31Q444.9-14.67 444.38-15.95 443.85-17.24 442.95-18.23 442.05-19.21 440.84-19.81 439.63-20.41 438.26-20.41L438.26-20.41Q436.9-20.41 435.69-19.95 434.48-19.48 433.59-18.58 432.7-17.68 432.18-16.35 431.67-15.01 431.67-13.31L431.67-13.31Q431.67-11.67 432.18-10.36 432.7-9.06 433.59-8.13 434.48-7.2 435.69-6.7 436.9-6.2 438.26-6.2L438.26-6.2Q439.63-6.2 440.84-6.8 442.05-7.4 442.95-8.39 443.85-9.38 444.38-10.66 444.9-11.94 444.9-13.31ZM451.62-26.1L451.62-3.3Q451.62-0.54 450.57 1.88 449.52 4.3 447.7 6.1 445.88 7.91 443.45 8.96 441.02 10.01 438.26 10.01L438.26 10.01 434.92 9.96 434.92 3.3 438.21 3.34Q439.78 3.34 440.88 2.94 441.97 2.54 442.73 1.84 443.49 1.15 443.94 0.24 444.39-0.66 444.66-1.66L444.66-1.66Q444.27-1.03 443.54-0.62 442.8-0.22 441.91 0.04 441.02 0.29 440.06 0.39 439.09 0.49 438.26 0.49L438.26 0.49Q435.5 0.49 433.08-0.46 430.65-1.42 428.83-3.19 427.01-4.96 425.96-7.52 424.91-10.08 424.91-13.31L424.91-13.31Q424.91-16.26 425.96-18.8 427.01-21.34 428.83-23.19 430.65-25.05 433.08-26.1 435.5-27.15 438.26-27.15L438.26-27.15Q439.53-27.15 440.78-26.83 442.02-26.51 443.19-25.95 444.37-25.39 445.43-24.63 446.49-23.88 447.42-23L447.42-23 450.01-26.1 451.62-26.1ZM478.39-13.99L478.39 0 471.39 0 471.39-35.01 478.39-35.01 478.39-21 492.38-21 492.38-35.01 499.39-35.01 499.39 0 492.38 0 492.38-13.99 478.39-13.99ZM527.68-21.46L515.18-6.4Q515.58-6.27 515.97-6.24 516.36-6.2 516.75-6.2L516.75-6.2Q517.72-6.2 518.63-6.47 519.53-6.74 520.32-7.24 521.12-7.74 521.74-8.46 522.36-9.18 522.75-10.06L522.75-10.06 527.64-5.15Q526.71-3.83 525.5-2.78 524.29-1.73 522.89-1 521.48-0.27 519.93 0.11 518.38 0.49 516.75 0.49L516.75 0.49Q513.99 0.49 511.56-0.54 509.13-1.56 507.31-3.39 505.49-5.22 504.44-7.75 503.39-10.28 503.39-13.31L503.39-13.31Q503.39-16.41 504.44-18.97 505.49-21.53 507.31-23.34 509.13-25.15 511.56-26.15 513.99-27.15 516.75-27.15L516.75-27.15Q518.38-27.15 519.95-26.76 521.51-26.37 522.91-25.63 524.32-24.9 525.54-23.84 526.76-22.78 527.68-21.46L527.68-21.46ZM510.84-9.84L518.6-20.14Q518.14-20.31 517.69-20.36 517.24-20.41 516.75-20.41L516.75-20.41Q515.38-20.41 514.17-19.91 512.96-19.41 512.07-18.48 511.18-17.55 510.67-16.25 510.16-14.94 510.16-13.31L510.16-13.31Q510.16-12.94 510.19-12.48 510.23-12.01 510.31-11.54 510.4-11.06 510.52-10.62 510.64-10.18 510.84-9.84L510.84-9.84ZM537.69-14.4L537.69 0 531.03 0 531.03-26.15 532.64-26.15 534.84-23.05Q536.45-24.51 538.5-25.31 540.55-26.1 542.75-26.1L542.75-26.1 548.63-26.1 548.63-19.46 542.75-19.46Q541.7-19.46 540.77-19.07 539.84-18.68 539.16-17.99 538.47-17.31 538.08-16.38 537.69-15.45 537.69-14.4L537.69-14.4ZM574.14-21.46L561.64-6.4Q562.03-6.27 562.42-6.24 562.81-6.2 563.2-6.2L563.2-6.2Q564.18-6.2 565.08-6.47 565.99-6.74 566.78-7.24 567.57-7.74 568.19-8.46 568.82-9.18 569.21-10.06L569.21-10.06 574.09-5.15Q573.16-3.83 571.95-2.78 570.75-1.73 569.34-1 567.94-0.27 566.39 0.11 564.84 0.49 563.2 0.49L563.2 0.49Q560.44 0.49 558.01-0.54 555.58-1.56 553.77-3.39 551.95-5.22 550.9-7.75 549.85-10.28 549.85-13.31L549.85-13.31Q549.85-16.41 550.9-18.97 551.95-21.53 553.77-23.34 555.58-25.15 558.01-26.15 560.44-27.15 563.2-27.15L563.2-27.15Q564.84-27.15 566.4-26.76 567.96-26.37 569.37-25.63 570.77-24.9 571.99-23.84 573.21-22.78 574.14-21.46L574.14-21.46ZM557.29-9.84L565.06-20.14Q564.59-20.31 564.14-20.36 563.69-20.41 563.2-20.41L563.2-20.41Q561.83-20.41 560.63-19.91 559.42-19.41 558.53-18.48 557.64-17.55 557.12-16.25 556.61-14.94 556.61-13.31L556.61-13.31Q556.61-12.94 556.65-12.48 556.68-12.01 556.77-11.54 556.85-11.06 556.98-10.62 557.1-10.18 557.29-9.84L557.29-9.84ZM585.68-2.49L585.68-2.49Q585.68-1.61 585.37-0.84 585.05-0.07 584.49 0.49 583.93 1.05 583.17 1.38 582.41 1.71 581.53 1.71L581.53 1.71Q580.68 1.71 579.91 1.38 579.14 1.05 578.57 0.49 577.99-0.07 577.66-0.84 577.34-1.61 577.34-2.49L577.34-2.49Q577.34-3.34 577.66-4.1 577.99-4.86 578.57-5.42 579.14-5.98 579.91-6.31 580.68-6.64 581.53-6.64L581.53-6.64Q582.41-6.64 583.17-6.31 583.93-5.98 584.49-5.42 585.05-4.86 585.37-4.1 585.68-3.34 585.68-2.49Z" opacity="1" transform="matrix(1,0,0,1,0,0)" fill="white" class="slogan-text-1" id="SvgjsPath1179"></path></svg></g></svg></g></svg></g></svg></g><g transform="matrix(1,0,0,1,0,0.34574422941813054)"><svg viewBox="0 0 138.29769176725236 138.29769176725236" height="138.29769176725236" width="138.29769176725236"><g><svg xmlns="http://www.w3.org/2000/svg" data-name="Layer 1" viewBox="15 15 70 70" x="0" y="0" height="138.29769176725236" width="138.29769176725236" class="icon-icon-0" data-fill-palette-color="accent" id="SvgjsSvg1178"></svg></g></svg></g></svg></g><defs><mask></mask></defs></svg></g></mask><linearGradient x1="0" x2="1" y1="0.548" y2="0.55" id="9cbd18a2-55e8-4757-880a-ea8d01a1cdac"><stop stop-color="#ff6cab" offset="0"></stop><stop stop-color="#7366ff" offset="1"></stop></linearGradient><rect width="395.52" height="97.91317097844515" fill="url(#9cbd18a2-55e8-4757-880a-ea8d01a1cdac)" mask="url(#bb5265a1-8df8-4b79-be0c-f73ccd1d623e)" data-fill-palette-color="secondary"></rect></svg><rect width="395.52" height="94.4479092698072" fill="none" stroke="none" visibility="hidden"></rect></g></svg></g></svg>