<svg xmlns="http://www.w3.org/2000/svg" version="1.1" xmlns:xlink="http://www.w3.org/1999/xlink" xmlns:svgjs="http://svgjs.dev/svgjs" width="1500" height="450" viewBox="0 0 1500 450"><g transform="matrix(1,0,0,1,-0.9090909090909918,0.8732742418756345)"><svg viewBox="0 0 396 119" data-background-color="#ffffff" preserveAspectRatio="xMidYMid meet" height="450" width="1500" xmlns="http://www.w3.org/2000/svg" xmlns:xlink="http://www.w3.org/1999/xlink"><g id="tight-bounds" transform="matrix(1,0,0,1,0.2400000000000091,-0.2309325217404421)"><svg viewBox="0 0 395.52 119.4618650434809" height="119.4618650434809" width="395.52"><g><svg viewBox="0 0 660.3517655252465 199.45098476537555" height="119.4618650434809" width="395.52"><g transform="matrix(1,0,0,1,262.8541655252465,35.42200699985074)"><svg viewBox="0 0 397.4975999999999 128.60697076567408" height="128.60697076567408" width="397.4975999999999"><g id="textblocktransform"><svg viewBox="0 0 397.4975999999999 128.60697076567408" height="128.60697076567408" width="397.4975999999999" id="textblock"><g><rect width="397.4975999999999" height="6.570647813044179" x="0" y="80.60093309804523" fill="#fb6908" opacity="1" stroke-width="0" stroke="transparent" fill-opacity="1" class="rect-qz-0" data-fill-palette-color="primary" rx="1%" id="qz-0" data-palette-color="#fb6908"></rect></g><g transform="matrix(1,0,0,1,0.9887999999999693,0)"><svg viewBox="0 0 395.52 72.86064117168429" height="72.86064117168429" width="395.52"><g transform="matrix(1,0,0,1,0,0)"><svg width="395.52" viewBox="2.54 -27.15 150.01000000000002 27.639999999999997" height="72.86064117168429" data-palette-color="#fb6908"><path d="M9.2-14.94L9.2 0 2.54 0 2.54-26.15 4.15-26.15 6.35-23.61Q7.96-25.07 10-25.87 12.04-26.66 14.26-26.66L14.26-26.66Q16.65-26.66 18.77-25.74 20.9-24.83 22.49-23.23 24.07-21.63 24.99-19.49 25.9-17.36 25.9-14.94L25.9-14.94 25.9 0 19.24 0 19.24-14.94Q19.24-15.97 18.85-16.88 18.46-17.8 17.77-18.48 17.09-19.17 16.19-19.56 15.28-19.95 14.26-19.95L14.26-19.95Q13.21-19.95 12.28-19.56 11.35-19.17 10.67-18.48 9.99-17.8 9.59-16.88 9.2-15.97 9.2-14.94L9.2-14.94ZM55.95-26.1L55.95 0 54.34 0 51.76-3.59Q50.8-2.73 49.74-1.99 48.68-1.25 47.51-0.7 46.34-0.15 45.1 0.17 43.87 0.49 42.6 0.49L42.6 0.49Q39.84 0.49 37.41-0.44 34.98-1.37 33.16-3.14 31.35-4.91 30.3-7.47 29.25-10.03 29.25-13.31L29.25-13.31Q29.25-16.36 30.3-18.91 31.35-21.46 33.16-23.29 34.98-25.12 37.41-26.14 39.84-27.15 42.6-27.15L42.6-27.15Q43.87-27.15 45.11-26.83 46.36-26.51 47.53-25.95 48.7-25.39 49.77-24.63 50.83-23.88 51.76-23L51.76-23 54.34-26.1 55.95-26.1ZM49.24-13.31L49.24-13.31Q49.24-14.67 48.72-15.95 48.19-17.24 47.29-18.23 46.38-19.21 45.18-19.81 43.97-20.41 42.6-20.41L42.6-20.41Q41.23-20.41 40.02-19.95 38.82-19.48 37.92-18.58 37.03-17.68 36.52-16.35 36.01-15.01 36.01-13.31L36.01-13.31Q36.01-11.6 36.52-10.27 37.03-8.94 37.92-8.03 38.82-7.13 40.02-6.67 41.23-6.2 42.6-6.2L42.6-6.2Q43.97-6.2 45.18-6.8 46.38-7.4 47.29-8.39 48.19-9.38 48.72-10.66 49.24-11.94 49.24-13.31ZM82.44 0L80.24-3.05Q79.44-2.32 78.52-1.67 77.61-1.03 76.61-0.55 75.61-0.07 74.54 0.21 73.48 0.49 72.38 0.49L72.38 0.49Q69.97 0.49 67.84-0.37 65.72-1.22 64.12-2.8 62.52-4.37 61.6-6.63 60.69-8.89 60.69-11.69L60.69-11.69 60.69-26.15 67.33-26.15 67.33-11.69Q67.33-10.38 67.73-9.34 68.13-8.3 68.82-7.59 69.5-6.88 70.42-6.52 71.33-6.15 72.38-6.15L72.38-6.15Q73.41-6.15 74.32-6.63 75.24-7.1 75.92-7.89 76.61-8.67 77-9.66 77.39-10.64 77.39-11.69L77.39-11.69 77.39-26.15 84.05-26.15 84.05 0 82.44 0ZM122.38-16.6L122.38 0 115.74 0 115.74-16.6Q115.74-17.29 115.48-17.9 115.23-18.51 114.76-18.97 114.3-19.43 113.69-19.69 113.08-19.95 112.39-19.95L112.39-19.95Q111.71-19.95 111.11-19.69 110.51-19.43 110.06-18.97 109.61-18.51 109.36-17.9 109.1-17.29 109.1-16.6L109.1-16.6 109.1 0 102.43 0 102.43-16.6Q102.43-17.29 102.18-17.9 101.92-18.51 101.46-18.97 100.99-19.43 100.38-19.69 99.77-19.95 99.09-19.95L99.09-19.95Q98.41-19.95 97.81-19.69 97.21-19.43 96.76-18.97 96.31-18.51 96.05-17.9 95.79-17.29 95.79-16.6L95.79-16.6 95.79 0 89.13 0 89.13-26.15 90.74-26.15 92.55-24.15Q93.94-25.32 95.61-25.96 97.28-26.61 99.09-26.61L99.09-26.61Q100.92-26.61 102.67-25.93 104.41-25.24 105.73-23.56L105.73-23.56Q106.34-24.39 107.12-24.98 107.9-25.56 108.77-25.93 109.64-26.29 110.56-26.45 111.49-26.61 112.39-26.61L112.39-26.61Q114.47-26.61 116.29-25.83 118.11-25.05 119.46-23.69 120.82-22.34 121.6-20.51 122.38-18.68 122.38-16.6L122.38-16.6ZM152.55-26.1L152.55 0 150.94 0 148.35-3.59Q147.4-2.73 146.34-1.99 145.28-1.25 144.11-0.7 142.93-0.15 141.7 0.17 140.47 0.49 139.2 0.49L139.2 0.49Q136.44 0.49 134.01-0.44 131.58-1.37 129.76-3.14 127.94-4.91 126.89-7.47 125.84-10.03 125.84-13.31L125.84-13.31Q125.84-16.36 126.89-18.91 127.94-21.46 129.76-23.29 131.58-25.12 134.01-26.14 136.44-27.15 139.2-27.15L139.2-27.15Q140.47-27.15 141.71-26.83 142.96-26.51 144.13-25.95 145.3-25.39 146.36-24.63 147.43-23.88 148.35-23L148.35-23 150.94-26.1 152.55-26.1ZM145.84-13.31L145.84-13.31Q145.84-14.67 145.31-15.95 144.79-17.24 143.89-18.23 142.98-19.21 141.77-19.81 140.57-20.41 139.2-20.41L139.2-20.41Q137.83-20.41 136.62-19.95 135.41-19.48 134.52-18.58 133.63-17.68 133.12-16.35 132.61-15.01 132.61-13.31L132.61-13.31Q132.61-11.6 133.12-10.27 133.63-8.94 134.52-8.03 135.41-7.13 136.62-6.67 137.83-6.2 139.2-6.2L139.2-6.2Q140.57-6.2 141.77-6.8 142.98-7.4 143.89-8.39 144.79-9.38 145.31-10.66 145.84-11.94 145.84-13.31Z" opacity="1" transform="matrix(1,0,0,1,0,0)" fill="#fb6908" class="wordmark-text-0" data-fill-palette-color="primary" id="text-0"></path></svg></g></svg></g><g transform="matrix(1,0,0,1,0,94.91187283745035)"><svg viewBox="0 0 395.52 33.6950979282237" height="33.6950979282237" width="395.52"><g transform="matrix(1,0,0,1,0,0)"><svg width="395.52" viewBox="1.71 -36.25 431.27000000000004 36.74" height="33.6950979282237" data-palette-color="#efa33f"><path d="M13.18-5.35L13.18-5.35Q14.16-5.35 15.12-5.54 16.09-5.74 16.83-6.2 17.58-6.67 18.04-7.4 18.51-8.13 18.51-9.2L18.51-9.2Q18.51-10.5 17.83-11.4 17.16-12.3 16.06-13 14.97-13.7 13.57-14.28 12.18-14.87 10.72-15.5 9.25-16.14 7.86-16.93 6.47-17.72 5.37-18.85 4.27-19.97 3.6-21.52 2.93-23.07 2.93-25.22L2.93-25.22Q2.93-27.73 3.91-29.79 4.88-31.84 6.69-33.26 8.5-34.69 11.08-35.47 13.67-36.25 16.87-36.25L16.87-36.25Q17.7-36.25 18.86-36.19 20.02-36.13 21.33-35.99 22.63-35.84 24-35.61 25.37-35.38 26.64-35.03L26.64-35.03 25.22-28.81 24.8-28.61Q23.73-29.1 22.63-29.44 21.53-29.79 20.5-30 19.46-30.22 18.54-30.32 17.63-30.42 16.92-30.42L16.92-30.42Q14.72-30.42 13.43-29.54 12.13-28.66 12.13-26.9L12.13-26.9Q12.13-25.63 12.81-24.76 13.48-23.88 14.58-23.19 15.67-22.51 17.08-21.95 18.48-21.39 19.93-20.74 21.39-20.09 22.79-19.3 24.19-18.51 25.29-17.37 26.39-16.24 27.06-14.66 27.73-13.09 27.73-10.91L27.73-10.91Q27.73-8.33 26.75-6.23 25.76-4.13 23.9-2.64 22.05-1.15 19.38-0.33 16.72 0.49 13.4 0.49L13.4 0.49Q12.21 0.49 10.8 0.37 9.4 0.24 7.87-0.02 6.35-0.29 4.79-0.73 3.22-1.17 1.71-1.83L1.71-1.83 3.1-8.08 3.61-8.33Q5.05-7.67 6.31-7.13 7.57-6.59 8.73-6.19 9.89-5.79 10.99-5.57 12.08-5.35 13.18-5.35ZM51.56-29.93L51.56 0 41.65 0 41.65-29.93 30.81-29.93 31.83-35.77 62.42-35.77 61.4-29.93 51.56-29.93ZM81.81-12.89L77.95-12.89 77.95 0 68.04 0 68.04-35.77 81.78-35.77Q85.54-35.77 88.28-35.01 91.01-34.25 92.79-32.97 94.58-31.69 95.42-30.02 96.26-28.34 96.26-26.54L96.26-26.54Q96.26-24.85 95.62-23.38 94.99-21.9 93.99-20.64 92.99-19.38 91.78-18.35 90.57-17.31 89.45-16.5L89.45-16.5 99.31 0 87.86 0 81.81-12.89ZM77.95-29.93L77.95-18.24 83.52-18.24Q84.08-18.55 84.65-19.09 85.22-19.63 85.68-20.37 86.13-21.12 86.41-22.06 86.69-23 86.69-24.15L86.69-24.15Q86.69-25.39 86.32-26.44 85.96-27.49 85.25-28.27 84.54-29.05 83.5-29.49 82.47-29.93 81.1-29.93L81.1-29.93 77.95-29.93ZM127.73 0L104.44 0 104.44-35.77 128.58-35.77 127.56-29.93 114.35-29.93 114.35-21.09 125.75-21.09 124.85-15.75 114.35-15.75 114.35-5.83 128.75-5.83 127.73 0ZM132.66 0L143.4-35.77 155.58-35.77 166.27 0 155.8 0 153.8-7.81 142.74-7.81 140.76 0 132.66 0ZM144.08-13.16L152.46-13.16 149.65-24.19 148.5-29.71 148.01-29.71 146.87-24.19 144.08-13.16ZM178.97 0L170.67 0 173.55-35.77 187.39-35.77 191.54-19.31 192.93-12.04 193.42-12.04 194.98-19.34 199.11-35.77 213.98-35.77 216.86 0 206.02 0 205.11-22.73 205.09-29.61 204.48-29.61 202.94-22.92 197.03-0.71 187.95-0.71 182.04-22.88 180.46-29.61 179.85-29.61 179.85-22.78 178.97 0ZM234.34-35.77L234.34 0 224.42 0 224.42-35.77 234.34-35.77ZM250.3 0L242.63 0 242.63-35.77 255.92-35.77 266.17-17.87 268.9-12.23 269.39-12.23 269.15-18.55 269.15-35.77 276.81-35.77 276.81 0 266.22 0 253.13-22.63 250.54-27.98 250.06-27.98 250.3-22.17 250.3 0ZM315.58-18.16L315.58-2.05Q312.04-0.76 308.78-0.13 305.52 0.49 302.2 0.49L302.2 0.49Q297.32 0.49 293.78-0.73 290.24-1.95 287.93-4.16 285.62-6.37 284.51-9.46 283.4-12.55 283.4-16.31L283.4-16.31Q283.4-19.63 284.21-22.4 285.01-25.17 286.45-27.39 287.9-29.61 289.88-31.27 291.87-32.93 294.22-34.05 296.56-35.16 299.19-35.71 301.81-36.25 304.52-36.25L304.52-36.25Q305.4-36.25 306.6-36.19 307.79-36.13 309.11-35.99 310.43-35.84 311.78-35.61 313.14-35.38 314.34-35.06L314.34-35.06 312.94-28.78 312.46-28.59Q311.41-29.1 310.32-29.46 309.23-29.81 308.21-30.02 307.18-30.22 306.23-30.32 305.28-30.42 304.5-30.42L304.5-30.42Q301.98-30.42 299.97-29.6 297.95-28.78 296.54-27.21 295.12-25.63 294.36-23.33 293.61-21.02 293.61-18.07L293.61-18.07Q293.61-15.26 294.3-12.93 295-10.6 296.28-8.91 297.56-7.23 299.39-6.29 301.23-5.35 303.52-5.35L303.52-5.35Q303.86-5.35 304.33-5.37 304.79-5.4 305.27-5.44 305.74-5.49 306.18-5.57 306.62-5.64 306.89-5.74L306.89-5.74 306.89-18.16 315.58-18.16ZM329.74 0L340.48-35.77 352.66-35.77 363.35 0 352.88 0 350.88-7.81 339.82-7.81 337.84 0 329.74 0ZM341.16-13.16L349.54-13.16 346.73-24.19 345.58-29.71 345.09-29.71 343.94-24.19 341.16-13.16ZM378.39-29.93L378.39 0 368.48 0 368.48-35.77 382.35-35.77Q386.13-35.77 388.96-34.95 391.79-34.13 393.67-32.62 395.55-31.1 396.49-28.98 397.43-26.86 397.43-24.27L397.43-24.27Q397.43-21.41 396.43-19.08 395.43-16.75 393.65-15.1 391.87-13.45 389.45-12.55 387.03-11.65 384.23-11.65L384.23-11.65Q383.81-11.65 383.43-11.67 383.05-11.69 382.59-11.77L382.59-11.77 383.03-17.04Q383.15-17.02 383.43-17 383.71-16.99 383.91-16.99L383.91-16.99Q385.03-16.99 385.79-17.53 386.54-18.07 387.01-18.95 387.47-19.82 387.67-20.92 387.86-22.02 387.86-23.17L387.86-23.17Q387.86-25 387.45-26.29 387.03-27.59 386.25-28.39 385.47-29.2 384.37-29.57 383.27-29.93 381.91-29.93L381.91-29.93 378.39-29.93ZM413.93-29.93L413.93 0 404.02 0 404.02-35.77 417.89-35.77Q421.67-35.77 424.51-34.95 427.34-34.13 429.22-32.62 431.1-31.1 432.04-28.98 432.98-26.86 432.98-24.27L432.98-24.27Q432.98-21.41 431.98-19.08 430.98-16.75 429.19-15.1 427.41-13.45 424.99-12.55 422.58-11.65 419.77-11.65L419.77-11.65Q419.35-11.65 418.98-11.67 418.6-11.69 418.13-11.77L418.13-11.77 418.57-17.04Q418.7-17.02 418.98-17 419.26-16.99 419.45-16.99L419.45-16.99Q420.58-16.99 421.33-17.53 422.09-18.07 422.55-18.95 423.02-19.82 423.21-20.92 423.41-22.02 423.41-23.17L423.41-23.17Q423.41-25 422.99-26.29 422.58-27.59 421.8-28.39 421.01-29.2 419.92-29.57 418.82-29.93 417.45-29.93L417.45-29.93 413.93-29.93Z" opacity="1" transform="matrix(1,0,0,1,0,0)" fill="#efa33f" class="slogan-text-1" data-fill-palette-color="secondary" id="text-1"></path></svg></g></svg></g></svg></g></svg></g><g><svg viewBox="0 0 245.65351679999995 199.45098476537555" height="199.45098476537555" width="245.65351679999995"><g><svg xmlns="http://www.w3.org/2000/svg" xmlns:xlink="http://www.w3.org/1999/xlink" version="1.1" x="0" y="0" viewBox="3.187999999999997 11.920000000000009 94.06099999999999 76.36999999999998" enable-background="new 0 0 100 100" xml:space="preserve" height="199.45098476537555" width="245.65351679999995" class="icon-icon-0" data-fill-palette-color="accent" id="icon-0"></svg></g></svg></g></svg></g><defs></defs><mask id="bc9d61db-39fe-4694-bab9-2a7f7fbc180d"><g id="SvgjsG1033"><svg viewBox="0 0 395.52 119.4618650434809" height="119.4618650434809" width="395.52"><g><svg viewBox="0 0 660.3517655252465 199.45098476537555" height="119.4618650434809" width="395.52"><g transform="matrix(1,0,0,1,262.8541655252465,35.42200699985074)"><svg viewBox="0 0 397.4975999999999 128.60697076567408" height="128.60697076567408" width="397.4975999999999"><g id="SvgjsG1032"><svg viewBox="0 0 397.4975999999999 128.60697076567408" height="128.60697076567408" width="397.4975999999999" id="SvgjsSvg1031"><g></g><g transform="matrix(1,0,0,1,0.9887999999999693,0)"><svg viewBox="0 0 395.52 72.86064117168429" height="72.86064117168429" width="395.52"><g transform="matrix(1,0,0,1,0,0)"><svg width="395.52" viewBox="2.54 -27.15 150.01000000000002 27.639999999999997" height="72.86064117168429" data-palette-color="#fb6908"></svg></g></svg></g><g transform="matrix(1,0,0,1,0,94.91187283745035)"><svg viewBox="0 0 395.52 33.6950979282237" height="33.6950979282237" width="395.52"><g transform="matrix(1,0,0,1,0,0)"><svg width="395.52" viewBox="1.71 -36.25 431.27000000000004 36.74" height="33.6950979282237" data-palette-color="#efa33f"></svg></g></svg></g></svg></g></svg></g><g><svg viewBox="0 0 245.65351679999995 199.45098476537555" height="199.45098476537555" width="245.65351679999995"><g><svg xmlns="http://www.w3.org/2000/svg" xmlns:xlink="http://www.w3.org/1999/xlink" version="1.1" x="0" y="0" viewBox="3.187999999999997 11.920000000000009 94.06099999999999 76.36999999999998" enable-background="new 0 0 100 100" xml:space="preserve" height="199.45098476537555" width="245.65351679999995" class="icon-icon-0" data-fill-palette-color="accent" id="SvgjsSvg1027"><g fill="white"><path fill="white" d="M67.022 66.238c4.007-0.975 9.697-2.172 15.654-2.81 0.27-1.359 0.416-2.747 0.416-4.161 0-0.529-0.022-1.056-0.061-1.578v-7.557C80.241 56.723 74.527 62.363 67.022 66.238z"></path><path fill="white" d="M43.141 69.965c22.065 0 39.952-12.994 39.952-29.023 0-16.029-17.887-29.022-39.952-29.022-22.065 0-39.952 12.994-39.952 29.022C3.188 56.971 21.076 69.965 43.141 69.965zM9.82 40.94c0-4.666 5.207-8.448 11.63-8.448 6.423 0 11.63 3.783 11.63 8.448 0 4.666-5.207 8.449-11.63 8.449C15.026 49.389 9.82 45.606 9.82 40.94zM76.462 40.94c0 4.666-5.209 8.449-11.632 8.449S53.2 45.606 53.2 40.94c0-4.666 5.207-8.448 11.63-8.448S76.462 36.275 76.462 40.94zM31.509 56.698c0-4.665 5.208-8.449 11.629-8.449 6.424 0 11.631 3.784 11.631 8.449 0 4.667-5.208 8.448-11.631 8.448C36.716 65.146 31.509 61.365 31.509 56.698zM40.176 40.941c0-1.189 1.328-2.153 2.965-2.153s2.965 0.964 2.965 2.153c0 1.189-1.328 2.154-2.965 2.154S40.176 42.131 40.176 40.941zM54.77 25.186c0 4.666-5.208 8.449-11.631 8.449-6.422 0-11.629-3.783-11.629-8.449 0-4.667 5.208-8.449 11.629-8.449C49.562 16.736 54.77 20.519 54.77 25.186z"></path><path fill="white" d="M85.484 64.411c-10.738 0.977-24.245 4.428-30.171 6.047-3.854 0.868-7.939 1.339-12.173 1.339-18.725 0-34.613-9.143-39.907-21.701v7.876c-0.026 0.43-0.045 0.861-0.045 1.295 0 16.03 17.887 29.023 39.952 29.023 7.255 0 14.053-1.412 19.916-3.867 22.008-5.756 34.193-3.097 34.193-3.097V64.955C94.481 64.033 90.256 63.978 85.484 64.411z"></path></g></svg></g></svg></g></svg></g><defs><mask></mask></defs></svg></g></mask><linearGradient x1="0" x2="1" y1="0.5" y2="0.5" id="9bc6fd61-7cf9-4135-82a1-0cc76b6f4efc"><stop stop-color="#ffa62e" offset="0"></stop><stop stop-color="#f71b3d" offset="1"></stop></linearGradient><rect width="395.52000000000004" height="119.4618650434809" fill="url(#9bc6fd61-7cf9-4135-82a1-0cc76b6f4efc)" mask="url(#bc9d61db-39fe-4694-bab9-2a7f7fbc180d)" data-fill-palette-color="accent"></rect></svg><rect width="395.52" height="119.4618650434809" fill="none" stroke="none" visibility="hidden"></rect></g></svg></g></svg>