<svg xmlns="http://www.w3.org/2000/svg" version="1.1" xmlns:xlink="http://www.w3.org/1999/xlink" xmlns:svgjs="http://svgjs.dev/svgjs" width="1500" height="1206" viewBox="0 0 1500 1206"><g transform="matrix(1,0,0,1,0.8361371757268898,0.48825910931168437)"><svg viewBox="0 0 307 247" data-background-color="#ffffff" preserveAspectRatio="xMidYMid meet" height="1206" width="1500" xmlns="http://www.w3.org/2000/svg" xmlns:xlink="http://www.w3.org/1999/xlink"><g id="tight-bounds" transform="matrix(1,0,0,1,-0.1711294086321118,-0.09999999999999432)"><svg viewBox="0 0 307.3422588172642 247.2" height="247.2" width="307.3422588172642"><g><svg viewBox="0 0 395.52 318.12268308385273" height="247.2" width="307.3422588172642"><g transform="matrix(1,0,0,1,0,191.34664238634508)"><svg viewBox="0 0 395.52 126.77604069750768" height="126.77604069750768" width="395.52"><g id="textblocktransform"><svg viewBox="0 0 395.52 126.77604069750768" height="126.77604069750768" width="395.52" id="textblock"><g><svg viewBox="0 0 395.52 68.376938538392" height="68.376938538392" width="395.52"><g transform="matrix(1,0,0,1,0,0)"><svg width="395.52" viewBox="3.69 -35.51044921875 208.21 36.00044921875" height="68.376938538392" data-palette-color="#fb6908"><path d="M38.67-35.01L38.67-2.71Q38.67-2.03 38.42-1.44 38.16-0.85 37.73-0.43 37.3 0 36.72 0.24 36.13 0.49 35.47 0.49L35.47 0.49Q34.89 0.49 34.29 0.27 33.69 0.05 33.23-0.44L33.23-0.44 10.03-24.66 10.03 0 3.69 0 3.69-32.3Q3.69-33.28 4.24-34.07 4.79-34.86 5.64-35.25L5.64-35.25Q6.54-35.62 7.5-35.44 8.45-35.25 9.13-34.55L9.13-34.55 32.32-10.35 32.32-35.01 38.67-35.01ZM80.39-31.81L80.39 0 74.05 0 74.05-8.59 51.73-8.59 51.73 0 45.38 0 45.38-17.5Q45.38-21.34 46.7-24.56 48.02-27.78 50.36-30.1 52.71-32.42 55.91-33.72 59.1-35.01 62.89-35.01L62.89-35.01 77.19-35.01Q77.85-35.01 78.44-34.77 79.03-34.52 79.47-34.08 79.9-33.64 80.15-33.06 80.39-32.47 80.39-31.81L80.39-31.81ZM51.73-17.5L51.73-14.94 74.05-14.94 74.05-28.66 62.89-28.66Q62.6-28.66 61.66-28.58 60.72-28.49 59.48-28.15 58.25-27.81 56.88-27.1 55.52-26.39 54.37-25.15 53.22-23.9 52.48-22.03 51.73-20.17 51.73-17.5L51.73-17.5ZM122.07-35.01L122.07-3.2Q122.07-2.51 121.82-1.93 121.58-1.34 121.14-0.92 120.7-0.49 120.11-0.24 119.53 0 118.87 0L118.87 0 104.56 0Q102.53 0 100.46-0.44 98.38-0.88 96.44-1.79 94.5-2.71 92.79-4.13 91.08-5.54 89.8-7.48 88.52-9.42 87.79-11.93 87.06-14.43 87.06-17.5L87.06-17.5 87.06-35.01 93.4-35.01 93.4-17.5Q93.4-14.82 94.15-12.96 94.89-11.11 96.04-9.86 97.19-8.62 98.55-7.91 99.92-7.2 101.15-6.86 102.39-6.52 103.33-6.43 104.27-6.35 104.56-6.35L104.56-6.35 115.72-6.35 115.72-35.01 122.07-35.01ZM170.18-32.3L170.18 0 163.79 0 163.79-20.85 152.53-1.05Q152.12-0.29 151.37 0.1 150.63 0.49 149.77 0.49L149.77 0.49Q148.94 0.49 148.22 0.1 147.5-0.29 147.09-1.05L147.09-1.05 135.78-20.85 135.78 0 129.44 0 129.44-32.3Q129.44-33.4 130.08-34.25 130.73-35.11 131.78-35.4L131.78-35.4Q132.29-35.52 132.81-35.49 133.32-35.45 133.79-35.27 134.27-35.08 134.66-34.75 135.05-34.42 135.32-33.96L135.32-33.96 149.77-8.84 164.23-33.96Q164.79-34.89 165.78-35.28 166.76-35.67 167.84-35.4L167.84-35.4Q168.86-35.11 169.52-34.25 170.18-33.4 170.18-32.3L170.18-32.3ZM211.9-31.81L211.9 0 205.56 0 205.56-8.59 183.24-8.59 183.24 0 176.89 0 176.89-17.5Q176.89-21.34 178.21-24.56 179.53-27.78 181.87-30.1 184.22-32.42 187.42-33.72 190.62-35.01 194.4-35.01L194.4-35.01 208.71-35.01Q209.37-35.01 209.95-34.77 210.54-34.52 210.98-34.08 211.42-33.64 211.66-33.06 211.9-32.47 211.9-31.81L211.9-31.81ZM183.24-17.5L183.24-14.94 205.56-14.94 205.56-28.66 194.4-28.66Q194.11-28.66 193.17-28.58 192.23-28.49 190.99-28.15 189.76-27.81 188.39-27.1 187.03-26.39 185.88-25.15 184.73-23.9 183.99-22.03 183.24-20.17 183.24-17.5L183.24-17.5Z" opacity="1" transform="matrix(1,0,0,1,0,0)" fill="#fb6908" class="wordmark-text-0" data-fill-palette-color="primary" id="text-0"></path></svg></g></svg></g><g transform="matrix(1,0,0,1,0,84.51909268078143)"><svg viewBox="0 0 395.52 42.256948016726255" height="42.256948016726255" width="395.52"><g transform="matrix(1,0,0,1,0,0)"><svg width="395.52" viewBox="0.75 -38.85 462.85 49.45" height="42.256948016726255" data-palette-color="#ffbe17"><path d="M11.3-35Q14.05-35 16.18-34.02 18.3-33.05 20.1-31.05L20.1-31.05 17.7-28.45Q16.15-29.95 14.65-30.63 13.15-31.3 11.35-31.3L11.35-31.3Q9.2-31.3 7.88-29.93 6.55-28.55 6.55-26.3L6.55-26.3Q6.55-24.1 7.83-22.7 9.1-21.3 12.65-19.95L12.65-19.95Q16.75-18.4 18.85-16.1 20.95-13.8 20.95-9.55L20.95-9.55Q20.95-6.8 19.68-4.48 18.4-2.15 16.05-0.78 13.7 0.6 10.6 0.6L10.6 0.6Q7.5 0.6 5.1-0.55 2.7-1.7 0.75-3.85L0.75-3.85 3.2-6.45Q4.95-4.85 6.68-4 8.4-3.15 10.5-3.15L10.5-3.15Q13.1-3.15 14.65-4.85 16.2-6.55 16.2-9.45L16.2-9.45Q16.2-11.95 14.95-13.45 13.7-14.95 10.3-16.2L10.3-16.2Q5.95-17.85 3.93-20.2 1.9-22.55 1.9-26.1L1.9-26.1Q1.9-28.55 3.1-30.6 4.3-32.65 6.45-33.83 8.6-35 11.3-35L11.3-35ZM51.95-3.95L53.65-1.2Q51.4 0.6 48.6 0.6L48.6 0.6Q45.65 0.6 44.03-1.15 42.4-2.9 42.4-5.85L42.4-5.85 42.4-22.9 38.85-22.9 38.85-26.35 42.4-26.35 42.4-32.3 46.8-32.85 46.8-26.35 51.9-26.35 51.45-22.9 46.8-22.9 46.8-5.8Q46.8-3.05 49.15-3.05L49.15-3.05Q49.95-3.05 50.55-3.25 51.15-3.45 51.95-3.95L51.95-3.95ZM83.26-26.9Q84.36-26.9 85.26-26.6L85.26-26.6 84.51-22.35Q83.51-22.6 82.71-22.6L82.71-22.6Q80.76-22.6 79.51-20.85 78.26-19.1 77.56-15.5L77.56-15.5 77.56 0 73.16 0 73.16-26.35 76.96-26.35 77.31-21.45Q79.16-26.9 83.26-26.9L83.26-26.9ZM122.21-13.95Q122.21-12.85 122.11-11.65L122.11-11.65 108.31-11.65Q108.51-6.9 109.89-4.95 111.26-3 113.81-3L113.81-3Q115.46-3 116.76-3.53 118.06-4.05 119.46-5.2L119.46-5.2 121.41-2.55Q118.11 0.6 113.66 0.6L113.66 0.6Q108.96 0.6 106.36-2.88 103.76-6.35 103.76-12.9L103.76-12.9Q103.76-19.45 106.24-23.18 108.71-26.9 113.21-26.9L113.21-26.9Q117.56-26.9 119.89-23.63 122.21-20.35 122.21-13.95L122.21-13.95ZM117.96-14.9L117.96-15.25Q117.96-19.55 116.81-21.5 115.66-23.45 113.21-23.45L113.21-23.45Q111.01-23.45 109.76-21.48 108.51-19.5 108.31-14.9L108.31-14.9 117.96-14.9ZM158.92-5.6Q158.92-4.2 159.32-3.53 159.72-2.85 160.62-2.45L160.62-2.45 159.67 0.6Q157.82 0.3 156.74-0.58 155.67-1.45 155.22-3.2L155.22-3.2Q153.07 0.6 148.92 0.6L148.92 0.6Q145.67 0.6 143.74-1.58 141.82-3.75 141.82-7.35L141.82-7.35Q141.82-11.55 144.42-13.78 147.02-16 151.97-16L151.97-16 154.57-16 154.57-18.4Q154.57-21 153.54-22.2 152.52-23.4 150.37-23.4L150.37-23.4Q147.82-23.4 144.42-22.05L144.42-22.05 143.32-25.15Q147.37-26.9 150.92-26.9L150.92-26.9Q154.97-26.9 156.94-24.73 158.92-22.55 158.92-18.6L158.92-18.6 158.92-5.6ZM149.82-2.7Q152.92-2.7 154.57-6.9L154.57-6.9 154.57-13.05 152.47-13.05Q149.32-13.05 147.84-11.7 146.37-10.35 146.37-7.55L146.37-7.55Q146.37-5.15 147.27-3.93 148.17-2.7 149.82-2.7L149.82-2.7ZM204.32-26.9Q206.97-26.9 208.57-24.83 210.17-22.75 210.17-19.35L210.17-19.35 210.17 0 205.87 0 205.87-18.8Q205.87-21.3 205.19-22.4 204.52-23.5 203.22-23.5L203.22-23.5Q200.57-23.5 198.32-18.8L198.32-18.8 198.32 0 194.02 0 194.02-18.8Q194.02-23.5 191.37-23.5L191.37-23.5Q189.97-23.5 188.69-22.25 187.42-21 186.42-18.8L186.42-18.8 186.42 0 182.12 0 182.12-26.35 185.92-26.35 186.22-22.55Q188.72-26.9 192.47-26.9L192.47-26.9Q194.47-26.9 195.84-25.68 197.22-24.45 197.82-22.2L197.82-22.2Q200.52-26.9 204.32-26.9L204.32-26.9ZM233.12-26.35L237.52-26.35 237.52 0 233.12 0 233.12-26.35ZM235.27-38.85Q236.62-38.85 237.42-38 238.22-37.15 238.22-35.8L238.22-35.8Q238.22-34.55 237.4-33.7 236.57-32.85 235.27-32.85L235.27-32.85Q233.97-32.85 233.15-33.7 232.32-34.55 232.32-35.8L232.32-35.8Q232.32-37.1 233.15-37.98 233.97-38.85 235.27-38.85L235.27-38.85ZM271.43-26.9Q274.28-26.9 275.98-24.85 277.68-22.8 277.68-19.35L277.68-19.35 277.68 0 273.28 0 273.28-18.75Q273.28-21.3 272.55-22.38 271.83-23.45 270.38-23.45L270.38-23.45Q267.53-23.45 265.08-18.55L265.08-18.55 265.08 0 260.68 0 260.68-26.35 264.48-26.35 264.83-22.4Q266.13-24.6 267.68-25.75 269.23-26.9 271.43-26.9L271.43-26.9ZM317.28-29.15L318.58-25.2Q317.43-24.7 316.01-24.55 314.58-24.4 312.38-24.4L312.38-24.4Q316.23-22.3 316.23-17.7L316.23-17.7Q316.23-13.65 313.98-11.23 311.73-8.8 307.78-8.8L307.78-8.8Q306.33-8.8 305.13-9.3L305.13-9.3Q304.63-8.9 304.36-8.22 304.08-7.55 304.08-6.8L304.08-6.8Q304.08-5.7 304.68-5.08 305.28-4.45 306.83-4.45L306.83-4.45 309.73-4.45Q312.18-4.45 314.03-3.5 315.88-2.55 316.86-0.93 317.83 0.7 317.83 2.65L317.83 2.65Q317.83 6.25 315.16 8.43 312.48 10.6 307.43 10.6L307.43 10.6Q302.23 10.6 300.06 8.58 297.88 6.55 297.88 2.65L297.88 2.65 301.78 2.65Q301.78 5.1 302.98 6.13 304.18 7.15 307.48 7.15L307.48 7.15Q310.68 7.15 312.08 6.08 313.48 5 313.48 2.95L313.48 2.95Q313.48-0.95 308.88-0.95L308.88-0.95 307.03-0.95Q303.43-0.95 301.78-2.27 300.13-3.6 300.13-5.85L300.13-5.85Q300.13-8.25 302.73-10.35L302.73-10.35Q298.88-12.7 298.88-17.75L298.88-17.75Q298.88-21.9 301.33-24.4 303.78-26.9 307.68-26.9L307.68-26.9Q311.18-26.9 313.18-27.45 315.18-28 317.28-29.15L317.28-29.15ZM307.63-23.75Q305.43-23.75 304.33-22.3 303.23-20.85 303.23-17.75L303.23-17.75Q303.23-15.05 304.38-13.4 305.53-11.75 307.58-11.75L307.58-11.75Q309.78-11.75 310.83-13.15 311.88-14.55 311.88-17.8L311.88-17.8Q311.88-23.75 307.63-23.75L307.63-23.75ZM384.94 0L380.29 0 378.24-8.75 367.94-8.75 365.89 0 361.39 0 370.34-34.45 375.99-34.45 384.94 0ZM373.09-30.65L368.79-12.4 377.39-12.4 373.09-30.65ZM415.49-26.9Q419.34-26.9 421.34-23.38 423.34-19.85 423.34-13.2L423.34-13.2Q423.34-6.75 421.14-3.08 418.94 0.6 414.84 0.6L414.84 0.6Q411.44 0.6 409.24-2.3L409.24-2.3 409.24 10.05 404.84 10.6 404.84-26.35 408.69-26.35 408.94-22.85Q411.44-26.9 415.49-26.9L415.49-26.9ZM413.89-3Q416.24-3 417.47-5.43 418.69-7.85 418.69-13.2L418.69-13.2Q418.69-18.65 417.64-21.03 416.59-23.4 414.34-23.4L414.34-23.4Q411.49-23.4 409.24-19.55L409.24-19.55 409.24-6.05Q411.14-3 413.89-3L413.89-3ZM455.75-26.9Q459.6-26.9 461.6-23.38 463.6-19.85 463.6-13.2L463.6-13.2Q463.6-6.75 461.4-3.08 459.2 0.6 455.1 0.6L455.1 0.6Q451.7 0.6 449.5-2.3L449.5-2.3 449.5 10.05 445.1 10.6 445.1-26.35 448.95-26.35 449.2-22.85Q451.7-26.9 455.75-26.9L455.75-26.9ZM454.15-3Q456.5-3 457.72-5.43 458.95-7.85 458.95-13.2L458.95-13.2Q458.95-18.65 457.9-21.03 456.85-23.4 454.6-23.4L454.6-23.4Q451.75-23.4 449.5-19.55L449.5-19.55 449.5-6.05Q451.4-3 454.15-3L454.15-3Z" opacity="1" transform="matrix(1,0,0,1,0,0)" fill="#ffbe17" class="slogan-text-1" data-fill-palette-color="secondary" id="text-1"></path></svg></g></svg></g></svg></g></svg></g><g transform="matrix(1,0,0,1,102.15775587802217,0)"><svg viewBox="0 0 191.20448824395564 175.20448824395564" height="175.20448824395564" width="191.20448824395564"><g><svg xmlns="http://www.w3.org/2000/svg" xmlns:xlink="http://www.w3.org/1999/xlink" version="1.1" x="8" y="0" viewBox="29.1 29.1 41.800000000000004 41.800000000000004" enable-background="new 0 0 100 100" xml:space="preserve" height="175.20448824395564" width="175.20448824395564" class="icon-icon-0" data-fill-palette-color="accent" id="icon-0"><g fill="#bb3906" data-fill-palette-color="accent"><path d="M42.494 59.305L58.608 50l-16.114-9.302C42.494 40.698 42.494 59.305 42.494 59.305zM44.693 44.508L54.208 50l-9.515 5.495V44.508z" fill="#bb3906" data-fill-palette-color="accent"></path><path d="M66.313 29.1h-2.231H35.918h-2.233H29.1v41.8h4.585 2.233 28.163 2.231H70.9V29.1H66.313zM68.701 68.7H31.299V31.3h37.402C68.701 31.3 68.701 68.7 68.701 68.7z" fill="#bb3906" data-fill-palette-color="accent"></path><rect x="33.685" y="32.7" width="2.233" height="2.2" fill="#bb3906" data-fill-palette-color="accent"></rect><rect x="33.685" y="36.3" width="2.233" height="2.2" fill="#bb3906" data-fill-palette-color="accent"></rect><rect x="33.685" y="39.9" width="2.233" height="2.2" fill="#bb3906" data-fill-palette-color="accent"></rect><rect x="33.685" y="43.5" width="2.233" height="2.2" fill="#bb3906" data-fill-palette-color="accent"></rect><rect x="33.685" y="47.1" width="2.233" height="2.2" fill="#bb3906" data-fill-palette-color="accent"></rect><rect x="33.685" y="50.7" width="2.233" height="2.2" fill="#bb3906" data-fill-palette-color="accent"></rect><rect x="33.685" y="54.299" width="2.233" height="2.2" fill="#bb3906" data-fill-palette-color="accent"></rect><rect x="33.685" y="57.9" width="2.233" height="2.2" fill="#bb3906" data-fill-palette-color="accent"></rect><rect x="33.685" y="61.5" width="2.233" height="2.2" fill="#bb3906" data-fill-palette-color="accent"></rect><rect x="33.685" y="65.099" width="2.233" height="2.2" fill="#bb3906" data-fill-palette-color="accent"></rect><rect x="64.081" y="32.7" width="2.231" height="2.2" fill="#bb3906" data-fill-palette-color="accent"></rect><rect x="64.081" y="36.3" width="2.231" height="2.2" fill="#bb3906" data-fill-palette-color="accent"></rect><rect x="64.081" y="39.9" width="2.231" height="2.2" fill="#bb3906" data-fill-palette-color="accent"></rect><rect x="64.081" y="43.5" width="2.231" height="2.2" fill="#bb3906" data-fill-palette-color="accent"></rect><rect x="64.081" y="47.1" width="2.231" height="2.2" fill="#bb3906" data-fill-palette-color="accent"></rect><rect x="64.081" y="50.7" width="2.231" height="2.2" fill="#bb3906" data-fill-palette-color="accent"></rect><rect x="64.081" y="54.299" width="2.231" height="2.2" fill="#bb3906" data-fill-palette-color="accent"></rect><rect x="64.081" y="57.9" width="2.231" height="2.2" fill="#bb3906" data-fill-palette-color="accent"></rect><rect x="64.081" y="61.5" width="2.231" height="2.2" fill="#bb3906" data-fill-palette-color="accent"></rect><rect x="64.081" y="65.099" width="2.231" height="2.2" fill="#bb3906" data-fill-palette-color="accent"></rect></g></svg></g></svg></g><g><rect width="58.06888528665429" height="6.166302882392762" y="168.03818536156285" x="293.3622441219778" fill="#bb3906" data-fill-palette-color="accent"></rect><rect width="58.06888528665429" height="6.166302882392762" y="168.03818536156285" x="44.08887059136788" fill="#bb3906" data-fill-palette-color="accent"></rect><rect width="58.06888528665429" height="6.166302882392762" y="155.70557959677734" x="293.3622441219778" fill="#bb3906" data-fill-palette-color="accent"></rect><rect width="58.06888528665429" height="6.166302882392762" y="155.70557959677734" x="44.08887059136788" fill="#bb3906" data-fill-palette-color="accent"></rect></g></svg></g><defs></defs></svg><rect width="307.3422588172642" height="247.2" fill="none" stroke="none" visibility="hidden"></rect></g></svg></g></svg>