<svg xmlns="http://www.w3.org/2000/svg" version="1.1" xmlns:xlink="http://www.w3.org/1999/xlink" xmlns:svgjs="http://svgjs.dev/svgjs" width="1500" height="420" viewBox="0 0 1500 420"><g transform="matrix(1,0,0,1,-0.3058526011561753,0.7106138591108788)"><svg viewBox="0 0 346 97" data-background-color="#ffffff" preserveAspectRatio="xMidYMid meet" height="420" width="1500" xmlns="http://www.w3.org/2000/svg" xmlns:xlink="http://www.w3.org/1999/xlink"><g id="tight-bounds" transform="matrix(1,0,0,1,0.07055000000002565,-0.1542261554562856)"><svg viewBox="0 0 345.85889999999995 97.3317867927519" height="97.3317867927519" width="345.85889999999995"><g><svg viewBox="0 0 345.85889999999995 97.3317867927519" height="97.3317867927519" width="345.85889999999995"><g><svg viewBox="0 0 345.85889999999995 97.3317867927519" height="97.3317867927519" width="345.85889999999995"><g id="textblocktransform"><svg viewBox="0 0 345.85889999999995 97.3317867927519" height="97.3317867927519" width="345.85889999999995" id="textblock"><g><svg viewBox="0 0 345.85889999999995 55.90189999999999" height="55.90189999999999" width="345.85889999999995"><g><svg><g></g><g></g></svg></g><g><svg><g><svg></svg></g><g></g></svg></g><g id="text-0"><svg viewBox="0 0 345.85889999999995 55.90189999999999" height="55.90189999999999" width="345.85889999999995"><g transform="matrix(1,0,0,1,0,0)"><svg width="276.7589" viewBox="3.35 -34.25 171.04 34.55" height="55.90189999999999" data-palette-color="#e86a23"><path d="M35.3-29.95L35.3-4.75Q35.3-2.55 34-1.28 32.7 0 30.2 0L30.2 0Q29.55 0 28.9-0.15 28.25-0.3 27.53-0.7 26.8-1.1 26.25-1.45 25.7-1.8 24.88-2.53 24.05-3.25 23.58-3.68 23.1-4.1 22.1-5.05 21.1-6 20.65-6.45L20.65-6.45 11.5-15.1 11.5-4.25Q11.5-1.8 10.58-0.9 9.65 0 7.65 0L7.65 0Q5.45 0 4.4-1 3.35-2 3.35-4.35L3.35-4.35 3.35-28.5Q3.35-31.35 4.8-32.8 6.25-34.25 8.95-34.25L8.95-34.25Q10.8-34.25 11.93-33.68 13.05-33.1 14.6-31.6L14.6-31.6 27.25-19 27.25-29.9Q27.25-32.05 28.33-33.13 29.4-34.2 31.25-34.2L31.25-34.2Q33.4-34.2 34.35-33.2 35.3-32.2 35.3-29.95L35.3-29.95ZM49.15 0.3L49.15 0.3Q45.2 0.3 42.6-2.93 40-6.15 40-11.75L40-11.75Q40-17.45 42.57-20.83 45.15-24.2 49.15-24.2L49.15-24.2Q53.2-24.2 56.65-21.35L56.65-21.35Q58-23.85 61-23.85L61-23.85Q63.7-23.85 65.2-22.68 66.7-21.5 66.7-18.35L66.7-18.35 66.7-5.35Q66.7-2.35 65.45-1.18 64.2 0 61.05 0L61.05 0Q57.75 0 56.7-1.85L56.7-1.85Q53.5 0.3 49.15 0.3ZM55.95-7.2L55.95-16.55Q55.1-18 53.75-18L53.75-18Q52.45-18 51.65-16.1 50.85-14.2 50.85-11.75L50.85-11.75Q50.85-9.45 51.6-7.65 52.35-5.85 53.7-5.85L53.7-5.85Q55.1-5.85 55.95-7.2L55.95-7.2ZM82.3-19.7L82.35-10.55Q82.35-7.7 84.55-7.7L84.55-7.7Q85.3-7.7 85.87-8.18 86.45-8.65 86.75-9.5 87.05-10.35 87.05-11.45L87.05-11.45 87.05-18.15Q87.05-19.85 87.65-21.13 88.25-22.4 89.4-23.1 90.55-23.8 92.1-23.8L92.1-23.8Q94.8-23.8 96.3-22.63 97.8-21.45 97.8-18.3L97.8-18.3 97.8-5.3Q97.8-2.25 96.55-1.1 95.3 0.05 92.15 0.05L92.15 0.05Q90.8 0.05 89.85-0.23 88.9-0.5 88.32-1.05 87.75-1.6 87.45-2.5L87.45-2.5Q85.4-1.15 83.12-0.6 80.85-0.05 78.05-0.05L78.05-0.05Q74.5-0.05 72.95-2.83 71.4-5.6 71.4-11.95L71.4-11.95Q71.4-15.1 71.55-17.07 71.7-19.05 72.02-20.48 72.35-21.9 73.02-22.6 73.7-23.3 74.62-23.6 75.55-23.9 77.05-23.9L77.05-23.9Q79.85-23.9 81.07-22.85 82.3-21.8 82.3-19.7L82.3-19.7ZM132.29-4.15L132.29-13.2Q132.29-16 130.04-16L130.04-16Q129.04-16 128.54-14.85 128.04-13.7 128.04-11.95L128.04-11.95Q128.04-9.3 127.97-7.55 127.89-5.8 127.64-4.4 127.39-3 127.04-2.2 126.69-1.4 126.09-0.88 125.49-0.35 124.74-0.18 123.99 0 122.84 0L122.84 0Q121.09 0 120.02-0.5 118.94-1 118.49-1.9 118.04-2.8 118.04-4.15L118.04-4.15 118.04-13.2Q118.04-16 115.79-16L115.79-16Q114.89-16 114.32-14.98 113.74-13.95 113.74-12.3L113.74-12.3 113.74-5.35Q113.74-2.35 112.49-1.18 111.24 0 108.09 0L108.09 0Q105.14 0 104.07-1.38 102.99-2.75 102.99-5.9L102.99-5.9 102.99-18.2Q102.99-20.75 104.37-22.3 105.74-23.85 108.04-23.85L108.04-23.85Q112.14-23.85 113.24-21.2L113.24-21.2Q115.14-22.6 116.97-23.15 118.79-23.7 121.24-23.7L121.24-23.7Q124.94-23.7 126.59-20.5L126.59-20.5Q126.84-20.7 127.09-20.9L127.09-20.9Q130.94-23.7 136.54-23.7L136.54-23.7Q140.09-23.7 141.64-21 143.19-18.3 143.19-11.95L143.19-11.95Q143.19-9.3 143.12-7.55 143.04-5.8 142.79-4.4 142.54-3 142.17-2.2 141.79-1.4 141.12-0.88 140.44-0.35 139.62-0.18 138.79 0 137.54 0L137.54 0Q135.64 0 134.47-0.5 133.29-1 132.79-1.9 132.29-2.8 132.29-4.15L132.29-4.15ZM156.84 0.3L156.84 0.3Q152.89 0.3 150.29-2.93 147.69-6.15 147.69-11.75L147.69-11.75Q147.69-17.45 150.27-20.83 152.84-24.2 156.84-24.2L156.84-24.2Q160.89-24.2 164.34-21.35L164.34-21.35Q165.69-23.85 168.69-23.85L168.69-23.85Q171.39-23.85 172.89-22.68 174.39-21.5 174.39-18.35L174.39-18.35 174.39-5.35Q174.39-2.35 173.14-1.18 171.89 0 168.74 0L168.74 0Q165.44 0 164.39-1.85L164.39-1.85Q161.19 0.3 156.84 0.3ZM163.64-7.2L163.64-16.55Q162.79-18 161.44-18L161.44-18Q160.14-18 159.34-16.1 158.54-14.2 158.54-11.75L158.54-11.75Q158.54-9.45 159.29-7.65 160.04-5.85 161.39-5.85L161.39-5.85Q162.79-5.85 163.64-7.2L163.64-7.2Z" opacity="1" transform="matrix(1,0,0,1,0,0)" fill="#e86a23" class="wordmark-text-0" data-fill-palette-color="primary"></path></svg></g><g><svg xmlns="http://www.w3.org/2000/svg" data-name="Layer 1" viewBox="15 15 70 70" x="289.957" y="0" height="55.90189999999999" width="55.90189999999999" class="icon-cg-0" data-fill-palette-color="accent" id="cg-0"><path d="M50 85A10 10 0 0 1 40 75V25a5 5 0 1 0-10 0V52.5A7.5 7.5 0 0 1 22.5 60h-5a2.5 2.5 0 0 1 0-5h5A2.5 2.5 0 0 0 25 52.5V25a10 10 0 0 1 20 0V75a5 5 0 0 0 10 0V25a10 10 0 0 1 20 0V52.5A2.5 2.5 0 0 0 77.5 55h5a2.5 2.5 0 0 1 0 5h-5A7.5 7.5 0 0 1 70 52.5V25a5 5 0 0 0-10 0V75A10 10 0 0 1 50 85Z" fill="#d46d4d" data-fill-palette-color="accent"></path></svg></g></svg></g></svg></g><g transform="matrix(1,0,0,1,0,69.09899694439999)"><svg viewBox="0 0 345.85889999999995 28.232789848351917" height="28.232789848351917" width="345.85889999999995"><g transform="matrix(1,0,0,1,0,0)"><svg width="345.85889999999995" viewBox="1.34 -37.7 584.4 47.71" height="28.232789848351917" data-palette-color="#363062"><path d="M31.1-17.36L31.1-3.54Q28.66-1.46 25.66-0.35 22.66 0.76 19.41 0.76L19.41 0.76Q16.92 0.76 14.61 0.11 12.3-0.54 10.3-1.72 8.3-2.91 6.64-4.55 4.98-6.2 3.81-8.22 2.64-10.23 1.99-12.55 1.34-14.87 1.34-17.36L1.34-17.36Q1.34-19.85 1.99-22.14 2.64-24.44 3.81-26.45 4.98-28.47 6.64-30.11 8.3-31.76 10.3-32.93 12.3-34.11 14.61-34.75 16.92-35.4 19.41-35.4L19.41-35.4Q22.66-35.4 25.66-34.29 28.66-33.18 31.1-31.1L31.1-31.1 27.44-25Q25.85-26.61 23.78-27.53 21.7-28.44 19.41-28.44L19.41-28.44Q17.11-28.44 15.1-27.56 13.09-26.68 11.57-25.18 10.06-23.68 9.18-21.67 8.3-19.65 8.3-17.36L8.3-17.36Q8.3-15.04 9.18-13.01 10.06-10.99 11.57-9.47 13.09-7.96 15.1-7.08 17.11-6.2 19.41-6.2L19.41-6.2Q20.73-6.2 21.97-6.52 23.22-6.84 24.34-7.4L24.34-7.4 24.34-17.36 31.1-17.36ZM58.69-21.46L46.19-6.4Q46.58-6.27 46.97-6.24 47.36-6.2 47.75-6.2L47.75-6.2Q48.73-6.2 49.63-6.47 50.54-6.74 51.33-7.24 52.12-7.74 52.75-8.46 53.37-9.18 53.76-10.06L53.76-10.06 58.64-5.15Q57.71-3.83 56.51-2.78 55.3-1.73 53.89-1 52.49-0.27 50.94 0.11 49.39 0.49 47.75 0.49L47.75 0.49Q45 0.49 42.57-0.54 40.14-1.56 38.32-3.39 36.5-5.22 35.45-7.75 34.4-10.28 34.4-13.31L34.4-13.31Q34.4-16.41 35.45-18.97 36.5-21.53 38.32-23.34 40.14-25.15 42.57-26.15 45-27.15 47.75-27.15L47.75-27.15Q49.39-27.15 50.95-26.76 52.51-26.37 53.92-25.63 55.32-24.9 56.54-23.84 57.76-22.78 58.69-21.46L58.69-21.46ZM41.85-9.84L49.61-20.14Q49.15-20.31 48.69-20.36 48.24-20.41 47.75-20.41L47.75-20.41Q46.39-20.41 45.18-19.91 43.97-19.41 43.08-18.48 42.19-17.55 41.67-16.25 41.16-14.94 41.16-13.31L41.16-13.31Q41.16-12.94 41.2-12.48 41.24-12.01 41.32-11.54 41.41-11.06 41.53-10.62 41.65-10.18 41.85-9.84L41.85-9.84ZM80.2 0L75.15 0Q72.73 0 70.61-0.92 68.48-1.83 66.88-3.43 65.28-5.03 64.37-7.15 63.45-9.28 63.45-11.69L63.45-11.69 63.45-19.46 60.21-19.46 60.21-26.1 63.45-26.1 63.45-36.55 70.09-36.55 70.09-26.1 80.2-26.1 80.2-19.46 70.09-19.46 70.09-11.69Q70.09-10.64 70.48-9.73 70.87-8.81 71.56-8.13 72.24-7.45 73.17-7.04 74.1-6.64 75.15-6.64L75.15-6.64 80.2-6.64 80.2 0ZM114.38-10.96L114.38 0 107.4 0 107.4-10.96Q105.08-11.55 103.14-12.84 101.2-14.14 99.8-15.93 98.41-17.72 97.64-19.91 96.88-22.09 96.88-24.51L96.88-24.51 96.88-35.01 103.88-35.01 103.88-24.51Q103.88-23.07 104.43-21.79 104.98-20.51 105.93-19.56 106.88-18.6 108.17-18.05 109.45-17.5 110.89-17.5L110.89-17.5Q112.33-17.5 113.61-18.05 114.89-18.6 115.84-19.56 116.8-20.51 117.35-21.79 117.9-23.07 117.9-24.51L117.9-24.51 117.9-35.01 124.88-35.01 124.88-24.51Q124.88-22.09 124.11-19.91 123.34-17.72 121.95-15.93 120.56-14.14 118.63-12.84 116.7-11.55 114.38-10.96L114.38-10.96ZM153.2-13.31L153.2-13.31Q153.2-10.38 152.15-7.85 151.1-5.32 149.29-3.48 147.49-1.64 145.06-0.57 142.63 0.49 139.84 0.49L139.84 0.49Q137.08 0.49 134.66-0.57 132.23-1.64 130.41-3.48 128.59-5.32 127.54-7.85 126.49-10.38 126.49-13.31L126.49-13.31Q126.49-16.28 127.54-18.82 128.59-21.36 130.41-23.21 132.23-25.05 134.66-26.1 137.08-27.15 139.84-27.15L139.84-27.15Q142.63-27.15 145.06-26.16 147.49-25.17 149.29-23.35 151.1-21.53 152.15-18.98 153.2-16.43 153.2-13.31ZM146.48-13.31L146.48-13.31Q146.48-14.92 145.96-16.22 145.43-17.53 144.53-18.47 143.63-19.41 142.42-19.91 141.21-20.41 139.84-20.41L139.84-20.41Q138.48-20.41 137.27-19.91 136.06-19.41 135.17-18.47 134.28-17.53 133.76-16.22 133.25-14.92 133.25-13.31L133.25-13.31Q133.25-11.79 133.76-10.5 134.28-9.2 135.17-8.25 136.06-7.3 137.27-6.75 138.48-6.2 139.84-6.2L139.84-6.2Q141.21-6.2 142.42-6.71 143.63-7.23 144.53-8.15 145.43-9.08 145.96-10.4 146.48-11.72 146.48-13.31ZM178.3 0L176.1-3.05Q175.29-2.32 174.38-1.67 173.46-1.03 172.46-0.55 171.46-0.07 170.4 0.21 169.34 0.49 168.24 0.49L168.24 0.49Q165.82 0.49 163.7-0.37 161.57-1.22 159.97-2.8 158.37-4.37 157.46-6.63 156.54-8.89 156.54-11.69L156.54-11.69 156.54-26.15 163.18-26.15 163.18-11.69Q163.18-10.38 163.59-9.34 163.99-8.3 164.67-7.59 165.36-6.88 166.27-6.52 167.19-6.15 168.24-6.15L168.24-6.15Q169.26-6.15 170.18-6.63 171.09-7.1 171.78-7.89 172.46-8.67 172.85-9.66 173.24-10.64 173.24-11.69L173.24-11.69 173.24-26.15 179.91-26.15 179.91 0 178.3 0ZM191.65-14.4L191.65 0 184.99 0 184.99-26.15 186.6-26.15 188.79-23.05Q190.41-24.51 192.46-25.31 194.51-26.1 196.7-26.1L196.7-26.1 202.59-26.1 202.59-19.46 196.7-19.46Q195.65-19.46 194.73-19.07 193.8-18.68 193.12-17.99 192.43-17.31 192.04-16.38 191.65-15.45 191.65-14.4L191.65-14.4ZM218.33-24.51L218.33-24.51Q218.33-26.68 219.17-28.59 220-30.49 221.42-31.92 222.85-33.35 224.76-34.18 226.66-35.01 228.83-35.01L228.83-35.01 244.9-35.01 244.9-28 228.83-28Q228.1-28 227.47-27.73 226.83-27.47 226.35-26.99 225.88-26.51 225.61-25.88 225.34-25.24 225.34-24.51L225.34-24.51Q225.34-23.78 225.61-23.13 225.88-22.49 226.35-22.01 226.83-21.53 227.47-21.26 228.1-21 228.83-21L228.83-21 235.84-21Q238.01-21 239.93-20.18 241.85-19.36 243.27-17.93 244.7-16.5 245.52-14.59 246.34-12.67 246.34-10.5L246.34-10.5Q246.34-8.33 245.52-6.42 244.7-4.52 243.27-3.09 241.85-1.66 239.93-0.83 238.01 0 235.84 0L235.84 0 220.29 0 220.29-7.01 235.84-7.01Q236.57-7.01 237.21-7.28 237.84-7.54 238.32-8.02 238.79-8.5 239.06-9.13 239.33-9.77 239.33-10.5L239.33-10.5Q239.33-11.23 239.06-11.87 238.79-12.5 238.32-12.98 237.84-13.45 237.21-13.72 236.57-13.99 235.84-13.99L235.84-13.99 228.83-13.99Q226.66-13.99 224.76-14.82 222.85-15.65 221.42-17.08 220-18.51 219.17-20.42 218.33-22.34 218.33-24.51ZM267.94 0L262.89 0Q260.47 0 258.35-0.92 256.23-1.83 254.63-3.43 253.03-5.03 252.11-7.15 251.2-9.28 251.2-11.69L251.2-11.69 251.2-19.46 247.95-19.46 247.95-26.1 251.2-26.1 251.2-36.55 257.84-36.55 257.84-26.1 267.94-26.1 267.94-19.46 257.84-19.46 257.84-11.69Q257.84-10.64 258.23-9.73 258.62-8.81 259.3-8.13 259.99-7.45 260.91-7.04 261.84-6.64 262.89-6.64L262.89-6.64 267.94-6.64 267.94 0ZM278.34-14.4L278.34 0 271.68 0 271.68-26.15 273.29-26.15 275.49-23.05Q277.1-24.51 279.15-25.31 281.2-26.1 283.4-26.1L283.4-26.1 289.28-26.1 289.28-19.46 283.4-19.46Q282.35-19.46 281.42-19.07 280.49-18.68 279.81-17.99 279.13-17.31 278.74-16.38 278.34-15.45 278.34-14.4L278.34-14.4ZM314.79-21.46L302.29-6.4Q302.69-6.27 303.08-6.24 303.47-6.2 303.86-6.2L303.86-6.2Q304.83-6.2 305.74-6.47 306.64-6.74 307.43-7.24 308.23-7.74 308.85-8.46 309.47-9.18 309.86-10.06L309.86-10.06 314.75-5.15Q313.82-3.83 312.61-2.78 311.4-1.73 310-1 308.59-0.27 307.04 0.11 305.49 0.49 303.86 0.49L303.86 0.49Q301.1 0.49 298.67-0.54 296.24-1.56 294.42-3.39 292.6-5.22 291.55-7.75 290.5-10.28 290.5-13.31L290.5-13.31Q290.5-16.41 291.55-18.97 292.6-21.53 294.42-23.34 296.24-25.15 298.67-26.15 301.1-27.15 303.86-27.15L303.86-27.15Q305.49-27.15 307.06-26.76 308.62-26.37 310.02-25.63 311.43-24.9 312.65-23.84 313.87-22.78 314.79-21.46L314.79-21.46ZM297.95-9.84L305.71-20.14Q305.25-20.31 304.8-20.36 304.35-20.41 303.86-20.41L303.86-20.41Q302.49-20.41 301.28-19.91 300.07-19.41 299.18-18.48 298.29-17.55 297.78-16.25 297.27-14.94 297.27-13.31L297.27-13.31Q297.27-12.94 297.3-12.48 297.34-12.01 297.42-11.54 297.51-11.06 297.63-10.62 297.75-10.18 297.95-9.84L297.95-9.84ZM343.26-26.1L343.26 0 341.65 0 339.06-3.59Q338.11-2.73 337.05-1.99 335.99-1.25 334.81-0.7 333.64-0.15 332.41 0.17 331.18 0.49 329.91 0.49L329.91 0.49Q327.15 0.49 324.72-0.44 322.29-1.37 320.47-3.14 318.65-4.91 317.6-7.47 316.55-10.03 316.55-13.31L316.55-13.31Q316.55-16.36 317.6-18.91 318.65-21.46 320.47-23.29 322.29-25.12 324.72-26.14 327.15-27.15 329.91-27.15L329.91-27.15Q331.18-27.15 332.42-26.83 333.67-26.51 334.84-25.95 336.01-25.39 337.07-24.63 338.13-23.88 339.06-23L339.06-23 341.65-26.1 343.26-26.1ZM336.55-13.31L336.55-13.31Q336.55-14.67 336.02-15.95 335.5-17.24 334.59-18.23 333.69-19.21 332.48-19.81 331.27-20.41 329.91-20.41L329.91-20.41Q328.54-20.41 327.33-19.95 326.12-19.48 325.23-18.58 324.34-17.68 323.83-16.35 323.32-15.01 323.32-13.31L323.32-13.31Q323.32-11.6 323.83-10.27 324.34-8.94 325.23-8.03 326.12-7.13 327.33-6.67 328.54-6.2 329.91-6.2L329.91-6.2Q331.27-6.2 332.48-6.8 333.69-7.4 334.59-8.39 335.5-9.38 336.02-10.66 336.55-11.94 336.55-13.31ZM381.59-16.6L381.59 0 374.95 0 374.95-16.6Q374.95-17.29 374.69-17.9 374.44-18.51 373.97-18.97 373.51-19.43 372.9-19.69 372.29-19.95 371.61-19.95L371.61-19.95Q370.92-19.95 370.32-19.69 369.73-19.43 369.27-18.97 368.82-18.51 368.57-17.9 368.31-17.29 368.31-16.6L368.31-16.6 368.31 0 361.65 0 361.65-16.6Q361.65-17.29 361.39-17.9 361.13-18.51 360.67-18.97 360.21-19.43 359.59-19.69 358.98-19.95 358.3-19.95L358.3-19.95Q357.62-19.95 357.02-19.69 356.42-19.43 355.97-18.97 355.52-18.51 355.26-17.9 355-17.29 355-16.6L355-16.6 355 0 348.34 0 348.34-26.15 349.95-26.15 351.76-24.15Q353.15-25.32 354.82-25.96 356.49-26.61 358.3-26.61L358.3-26.61Q360.13-26.61 361.88-25.93 363.62-25.24 364.94-23.56L364.94-23.56Q365.55-24.39 366.33-24.98 367.11-25.56 367.98-25.93 368.85-26.29 369.78-26.45 370.7-26.61 371.61-26.61L371.61-26.61Q373.68-26.61 375.5-25.83 377.32-25.05 378.67-23.69 380.03-22.34 380.81-20.51 381.59-18.68 381.59-16.6L381.59-16.6ZM394.31-33.25L394.31-33.25Q394.31-32.32 393.96-31.52 393.6-30.71 392.99-30.11 392.38-29.52 391.56-29.16 390.75-28.81 389.82-28.81L389.82-28.81Q388.89-28.81 388.07-29.16 387.26-29.52 386.66-30.11 386.06-30.71 385.71-31.52 385.35-32.32 385.35-33.25L385.35-33.25Q385.35-34.16 385.71-34.97 386.06-35.79 386.66-36.39 387.26-36.99 388.07-37.34 388.89-37.7 389.82-37.7L389.82-37.7Q390.75-37.7 391.56-37.34 392.38-36.99 392.99-36.39 393.6-35.79 393.96-34.97 394.31-34.16 394.31-33.25ZM393.16-26.15L393.16 0 386.45 0 386.45-26.15 393.16-26.15ZM404.91-14.94L404.91 0 398.24 0 398.24-26.15 399.85-26.15 402.05-23.61Q403.66-25.07 405.7-25.87 407.74-26.66 409.96-26.66L409.96-26.66Q412.35-26.66 414.48-25.74 416.6-24.83 418.19-23.23 419.78-21.63 420.69-19.49 421.61-17.36 421.61-14.94L421.61-14.94 421.61 0 414.94 0 414.94-14.94Q414.94-15.97 414.55-16.88 414.16-17.8 413.48-18.48 412.79-19.17 411.89-19.56 410.99-19.95 409.96-19.95L409.96-19.95Q408.91-19.95 407.98-19.56 407.06-19.17 406.37-18.48 405.69-17.8 405.3-16.88 404.91-15.97 404.91-14.94L404.91-14.94ZM444.95-13.31L444.95-13.31Q444.95-14.67 444.42-15.95 443.9-17.24 442.99-18.23 442.09-19.21 440.88-19.81 439.67-20.41 438.31-20.41L438.31-20.41Q436.94-20.41 435.73-19.95 434.52-19.48 433.63-18.58 432.74-17.68 432.23-16.35 431.71-15.01 431.71-13.31L431.71-13.31Q431.71-11.67 432.23-10.36 432.74-9.06 433.63-8.13 434.52-7.2 435.73-6.7 436.94-6.2 438.31-6.2L438.31-6.2Q439.67-6.2 440.88-6.8 442.09-7.4 442.99-8.39 443.9-9.38 444.42-10.66 444.95-11.94 444.95-13.31ZM451.66-26.1L451.66-3.3Q451.66-0.54 450.61 1.88 449.56 4.3 447.74 6.1 445.92 7.91 443.49 8.96 441.06 10.01 438.31 10.01L438.31 10.01 434.96 9.96 434.96 3.3 438.26 3.34Q439.82 3.34 440.92 2.94 442.02 2.54 442.77 1.84 443.53 1.15 443.98 0.24 444.43-0.66 444.7-1.66L444.7-1.66Q444.31-1.03 443.58-0.62 442.85-0.22 441.96 0.04 441.06 0.29 440.1 0.39 439.14 0.49 438.31 0.49L438.31 0.49Q435.55 0.49 433.12-0.46 430.69-1.42 428.87-3.19 427.05-4.96 426-7.52 424.95-10.08 424.95-13.31L424.95-13.31Q424.95-16.26 426-18.8 427.05-21.34 428.87-23.19 430.69-25.05 433.12-26.1 435.55-27.15 438.31-27.15L438.31-27.15Q439.58-27.15 440.82-26.83 442.07-26.51 443.24-25.95 444.41-25.39 445.47-24.63 446.53-23.88 447.46-23L447.46-23 450.05-26.1 451.66-26.1ZM478.44-13.99L478.44 0 471.44 0 471.44-35.01 478.44-35.01 478.44-21 492.43-21 492.43-35.01 499.44-35.01 499.44 0 492.43 0 492.43-13.99 478.44-13.99ZM527.73-21.46L515.23-6.4Q515.63-6.27 516.02-6.24 516.41-6.2 516.8-6.2L516.8-6.2Q517.77-6.2 518.68-6.47 519.58-6.74 520.37-7.24 521.17-7.74 521.79-8.46 522.41-9.18 522.8-10.06L522.8-10.06 527.69-5.15Q526.76-3.83 525.55-2.78 524.34-1.73 522.94-1 521.53-0.27 519.98 0.11 518.43 0.49 516.8 0.49L516.8 0.49Q514.04 0.49 511.61-0.54 509.18-1.56 507.36-3.39 505.54-5.22 504.49-7.75 503.44-10.28 503.44-13.31L503.44-13.31Q503.44-16.41 504.49-18.97 505.54-21.53 507.36-23.34 509.18-25.15 511.61-26.15 514.04-27.15 516.8-27.15L516.8-27.15Q518.43-27.15 520-26.76 521.56-26.37 522.96-25.63 524.37-24.9 525.59-23.84 526.81-22.78 527.73-21.46L527.73-21.46ZM510.89-9.84L518.65-20.14Q518.19-20.31 517.74-20.36 517.29-20.41 516.8-20.41L516.8-20.41Q515.43-20.41 514.22-19.91 513.01-19.41 512.12-18.48 511.23-17.55 510.72-16.25 510.21-14.94 510.21-13.31L510.21-13.31Q510.21-12.94 510.24-12.48 510.28-12.01 510.36-11.54 510.45-11.06 510.57-10.62 510.69-10.18 510.89-9.84L510.89-9.84ZM537.74-14.4L537.74 0 531.08 0 531.08-26.15 532.69-26.15 534.89-23.05Q536.5-24.51 538.55-25.31 540.6-26.1 542.8-26.1L542.8-26.1 548.68-26.1 548.68-19.46 542.8-19.46Q541.75-19.46 540.82-19.07 539.89-18.68 539.21-17.99 538.53-17.31 538.13-16.38 537.74-15.45 537.74-14.4L537.74-14.4ZM574.19-21.46L561.69-6.4Q562.08-6.27 562.48-6.24 562.87-6.2 563.26-6.2L563.26-6.2Q564.23-6.2 565.14-6.47 566.04-6.74 566.83-7.24 567.63-7.74 568.25-8.46 568.87-9.18 569.26-10.06L569.26-10.06 574.15-5.15Q573.22-3.83 572.01-2.78 570.8-1.73 569.4-1 567.99-0.27 566.44 0.11 564.89 0.49 563.26 0.49L563.26 0.49Q560.5 0.49 558.07-0.54 555.64-1.56 553.82-3.39 552-5.22 550.95-7.75 549.9-10.28 549.9-13.31L549.9-13.31Q549.9-16.41 550.95-18.97 552-21.53 553.82-23.34 555.64-25.15 558.07-26.15 560.5-27.15 563.26-27.15L563.26-27.15Q564.89-27.15 566.46-26.76 568.02-26.37 569.42-25.63 570.83-24.9 572.05-23.84 573.27-22.78 574.19-21.46L574.19-21.46ZM557.35-9.84L565.11-20.14Q564.65-20.31 564.2-20.36 563.75-20.41 563.26-20.41L563.26-20.41Q561.89-20.41 560.68-19.91 559.47-19.41 558.58-18.48 557.69-17.55 557.18-16.25 556.67-14.94 556.67-13.31L556.67-13.31Q556.67-12.94 556.7-12.48 556.74-12.01 556.82-11.54 556.91-11.06 557.03-10.62 557.15-10.18 557.35-9.84L557.35-9.84ZM585.74-2.49L585.74-2.49Q585.74-1.61 585.42-0.84 585.11-0.07 584.55 0.49 583.98 1.05 583.23 1.38 582.47 1.71 581.59 1.71L581.59 1.71Q580.74 1.71 579.97 1.38 579.2 1.05 578.63 0.49 578.05-0.07 577.72-0.84 577.39-1.61 577.39-2.49L577.39-2.49Q577.39-3.34 577.72-4.1 578.05-4.86 578.63-5.42 579.2-5.98 579.97-6.31 580.74-6.64 581.59-6.64L581.59-6.64Q582.47-6.64 583.23-6.31 583.98-5.98 584.55-5.42 585.11-4.86 585.42-4.1 585.74-3.34 585.74-2.49Z" opacity="1" transform="matrix(1,0,0,1,0,0)" fill="#363062" class="slogan-text-1" data-fill-palette-color="secondary" id="text-1"></path></svg></g></svg></g></svg></g></svg></g></svg></g><defs></defs></svg><rect width="345.85889999999995" height="97.3317867927519" fill="none" stroke="none" visibility="hidden"></rect></g></svg></g></svg>